<?xml version="1.0" standalone="no"?>
<!DOCTYPE svg PUBLIC "-//W3C//DTD SVG 1.1//EN" "http://www.w3.org/Graphics/SVG/1.1/DTD/svg11.dtd" >
<svg>
<metadata>
Created by FontForge 20110222 at Thu Apr 25 06:30:37 2013
 By Orthosie Webmaster
Digitised data copyright (c) Agfa Monotype, 2002. All rights reserved.
</metadata>
<defs>
<font id="BritishCouncilSansLightRegular" horiz-adv-x="576" >
  <font-face 
    font-family="BritishCouncilSansLightRegular"
    font-weight="300"
    font-stretch="normal"
    units-per-em="1000"
    panose-1="2 11 4 4 2 2 2 2 2 4"
    ascent="800"
    descent="-200"
    x-height="549"
    cap-height="742"
    bbox="-222 -208 1110 967"
    underline-thickness="20"
    underline-position="-123"
    unicode-range="U+0020-FB02"
  />
<missing-glyph horiz-adv-x="275" 
 />
    <glyph glyph-name=".notdef" horiz-adv-x="275" 
 />
    <glyph glyph-name=".null" horiz-adv-x="0" 
 />
    <glyph glyph-name="nonmarkingreturn" horiz-adv-x="275" 
 />
    <glyph glyph-name="space" unicode=" " horiz-adv-x="275" 
 />
    <glyph glyph-name="exclam" unicode="!" horiz-adv-x="263" 
d="M168 0h-73v78h73v-78zM167 756l-17 -611h-37l-17 611h71z" />
    <glyph glyph-name="quotedbl" unicode="&#x22;" horiz-adv-x="326" 
d="M125 742l-18 -274h-33l-18 274h69zM270 742l-18 -274h-33l-18 274h69z" />
    <glyph glyph-name="numbersign" unicode="#" horiz-adv-x="664" 
d="M438 410h-153l-51 -145h153zM648 453l-14 -43h-147l-52 -145h158l-14 -43h-159l-78 -222h-49l78 222h-153l-78 -222h-49l79 222h-154l14 43h155l51 145h-165l14 43h167l79 225h49l-79 -225h152l80 225h49l-80 -225h146z" />
    <glyph glyph-name="dollar" unicode="$" horiz-adv-x="596" 
d="M318 69q24 3 47.5 13t42.5 27t30.5 41t11.5 55t-9.5 53.5t-27 39.5t-42 30.5t-53.5 26.5v-286zM269 673q-48 -6 -83 -35t-35 -83q0 -23 8 -40t23 -30.5t37 -25.5t50 -24v238zM340 404q31 -14 60.5 -31t52.5 -39.5t37.5 -52.5t14.5 -70q0 -44 -15 -78t-40.5 -58t-59.5 -38
t-72 -17v-92h-49v92q-60 5 -109 31.5t-81 65.5l37 35q29 -35 70 -56.5t83 -26.5v307l-25 11q-29 13 -55.5 27.5t-47 33.5t-33 44t-12.5 60q0 37 13 67t36.5 51.5t55 34.5t68.5 16v73h49v-73q57 -4 100 -28.5t74 -66.5l-39 -31q-23 30 -58 51.5t-77 26.5v-259z" />
    <glyph glyph-name="percent" unicode="%" horiz-adv-x="802" 
d="M707 167q0 68 -29.5 104t-74.5 36t-74.5 -36t-29.5 -104t29.5 -103t74.5 -35t74.5 35t29.5 103zM303 575q0 68 -29.5 103t-74.5 35t-74.5 -35t-29.5 -103t29.5 -104t74.5 -36t74.5 36t29.5 104zM649 737l-462 -756l-36 20l462 755zM755 167q0 -85 -41.5 -133t-110.5 -48
t-110.5 48t-41.5 133q0 84 41.5 133.5t110.5 49.5t110.5 -49.5t41.5 -133.5zM351 575q0 -85 -41.5 -134t-110.5 -49t-110.5 49t-41.5 134q0 84 41.5 132.5t110.5 48.5t110.5 -48.5t41.5 -132.5z" />
    <glyph glyph-name="ampersand" unicode="&#x26;" horiz-adv-x="652" 
d="M245 379q-27 -18 -51 -36t-42.5 -39.5t-29 -48t-10.5 -61.5q0 -27 8 -56t27.5 -52t51 -38t78.5 -15q29 0 57.5 10t54 25t45 31.5t30.5 28.5zM392 607q0 22 -8 40.5t-22 32.5t-32.5 22t-39.5 8q-52 0 -80 -30.5t-28 -76.5q0 -21 4 -39t14 -37t25.5 -39.5t38.5 -46.5
q30 19 53.5 36.5t40 37t25.5 42t9 50.5zM497 90q-20 -19 -44.5 -37.5t-53 -33.5t-60.5 -24t-66 -9q-54 0 -94.5 16t-67.5 44t-40.5 66t-13.5 82q0 41 11.5 73.5t32.5 58.5t49.5 47.5t61.5 41.5q-20 24 -36 45.5t-27 44t-16.5 46.5t-5.5 53q0 28 9.5 55.5t30 49.5t51.5 35
t73 13q38 0 67 -13t49 -34t30 -47.5t10 -53.5q0 -59 -35 -106t-116 -98l207 -237q23 26 41.5 51t37.5 57l41 -31q-17 -28 -39 -58.5t-48 -56.5l114 -130h-74z" />
    <glyph glyph-name="quotesingle" unicode="'" horiz-adv-x="181" 
d="M125 742l-18 -274h-33l-18 274h69z" />
    <glyph glyph-name="parenleft" unicode="(" horiz-adv-x="297" 
d="M268 732q-44 -37 -76 -83.5t-53 -98.5t-31 -106.5t-10 -106.5q0 -53 10 -107t31 -106t53 -98.5t76 -83.5l-25 -24q-45 31 -81.5 75.5t-62 99t-39.5 116.5t-14 128t14 128t39.5 116.5t62 99t81.5 75.5z" />
    <glyph glyph-name="parenright" unicode=")" horiz-adv-x="297" 
d="M54 756q45 -31 81.5 -75.5t62 -99t39.5 -116.5t14 -128t-14 -128t-39.5 -116.5t-62 -99t-81.5 -75.5l-25 24q43 37 75 83.5t53 98.5t31.5 106t10.5 107q0 52 -10.5 106.5t-31.5 106.5t-53 98.5t-75 83.5z" />
    <glyph glyph-name="asterisk" unicode="*" horiz-adv-x="392" 
d="M370 607l-152 -31l104 -115l-49 -36l-77 135l-77 -135l-50 36l105 115l-152 32l19 58l141 -64l-16 154h61l-17 -154l141 63z" />
    <glyph glyph-name="plus" unicode="+" horiz-adv-x="600" 
d="M523 347h-198v-197h-49v197h-199v48h199v197h49v-197h198v-48z" />
    <glyph glyph-name="comma" unicode="," horiz-adv-x="205" 
d="M139 0l-56 -110h-30l46 110h-33v78h73v-78z" />
    <glyph glyph-name="hyphen" unicode="-" horiz-adv-x="309" 
d="M269 250h-229v51h229v-51z" />
    <glyph glyph-name="hyphen" unicode="&#xad;" horiz-adv-x="309" 
d="M269 250h-229v51h229v-51z" />
    <glyph glyph-name="period" unicode="." horiz-adv-x="205" 
d="M139 0h-73v78h73v-78z" />
    <glyph glyph-name="slash" unicode="/" horiz-adv-x="405" 
d="M405 742l-357 -742h-48l357 742h48z" />
    <glyph glyph-name="zero" unicode="0" horiz-adv-x="596" 
d="M483 365q0 90 -14.5 155t-39.5 106.5t-59 61.5t-73 20q-37 0 -70 -20t-58.5 -61.5t-40.5 -105.5t-15 -152q0 -83 14.5 -146t39.5 -105t58.5 -63.5t71.5 -21.5q39 0 73 21t59 63t39.5 104t14.5 144zM538 368q0 -91 -17.5 -162t-49 -120t-76 -74.5t-97.5 -25.5
q-54 0 -98.5 26t-76 75t-48.5 119t-17 158q0 93 17 165.5t48 123t75.5 76.5t99.5 26q54 0 98 -25.5t75.5 -75t49 -121.5t17.5 -165z" />
    <glyph glyph-name="one" unicode="1" horiz-adv-x="596" 
d="M342 0h-52v661q-7 -7 -22 -15t-33.5 -15.5t-38 -12.5t-35.5 -6v46q16 2 36.5 8.5t40 17t35 25t20.5 33.5h49v-742z" />
    <glyph glyph-name="two" unicode="2" horiz-adv-x="596" 
d="M525 0h-446v41l218 235q38 41 63.5 74.5t41 64t22 60.5t6.5 64q0 40 -13.5 71t-36.5 52.5t-53.5 32.5t-64.5 11q-55 0 -95 -26.5t-69 -64.5l-41 29q38 53 90 82.5t114 29.5q46 0 87 -14.5t71.5 -42.5t48 -68.5t17.5 -91.5q0 -36 -6 -67.5t-21.5 -64.5t-42.5 -69.5
t-69 -82.5l-190 -207h369v-48z" />
    <glyph glyph-name="three" unicode="3" horiz-adv-x="596" 
d="M208 368v48h51q37 0 69 11t56 31t37.5 49.5t13.5 66.5q0 64 -44.5 99t-116.5 35q-53 0 -90 -21.5t-66 -56.5l-37 32q35 46 83.5 69.5t108.5 23.5q53 0 93 -13.5t67 -38t40.5 -57.5t13.5 -72q0 -63 -33.5 -110t-93.5 -70q34 -6 62.5 -23t48.5 -41t31.5 -55t11.5 -66
q0 -50 -15 -91t-44.5 -70.5t-72.5 -45.5t-98 -16q-65 0 -121.5 29.5t-91.5 77.5l39 32q13 -17 32.5 -33.5t42.5 -29.5t49 -21t51 -8q37 0 69 11.5t55.5 34t36.5 55.5t13 75q0 36 -14.5 65.5t-40 50t-61 32t-78.5 11.5h-57z" />
    <glyph glyph-name="four" unicode="4" horiz-adv-x="596" 
d="M398 234v458l-290 -458h290zM530 186h-80v-186h-52v186h-352v44l326 512h78v-508h80v-48z" />
    <glyph glyph-name="five" unicode="5" horiz-adv-x="596" 
d="M267 458q118 0 179.5 -61.5t61.5 -170.5q0 -50 -15 -93.5t-44 -76t-72.5 -51.5t-100.5 -19q-67 0 -124.5 30t-93.5 78l41 31q13 -17 33 -33.5t43.5 -29.5t49.5 -21t52 -8q39 0 71.5 14t55.5 39.5t36 61t13 78.5q0 46 -14 81t-39.5 57.5t-60.5 34t-77 11.5h-156l43 332
h333v-48h-292l-30 -236h107z" />
    <glyph glyph-name="six" unicode="6" horiz-adv-x="596" 
d="M476 239q0 36 -10 70.5t-30 61t-50 43t-70 16.5q-36 0 -66 -13t-53 -35.5t-39 -52t-24 -63.5q0 -40 11 -81.5t33 -75t54.5 -55t75.5 -21.5q37 0 68 15.5t53.5 43t34.5 65.5t12 82zM456 626q-26 43 -59.5 62.5t-72.5 19.5t-74 -19t-62 -60t-43.5 -107t-19.5 -160
q31 60 81.5 87.5t111.5 27.5q51 0 90.5 -17.5t67 -49.5t41.5 -76t14 -96q0 -51 -15 -97t-43.5 -80.5t-70 -54.5t-94.5 -20q-59 0 -103.5 26t-74 74t-44 116t-14.5 152q0 102 17.5 177t50.5 125t80 74.5t105 24.5q57 0 98.5 -23.5t78.5 -77.5z" />
    <glyph glyph-name="seven" unicode="7" horiz-adv-x="596" 
d="M497 697l-265 -697h-58l268 694h-385v48h440v-45z" />
    <glyph glyph-name="eight" unicode="8" horiz-adv-x="596" 
d="M485 204q0 43 -15.5 75t-41.5 53t-59 31.5t-67 10.5q-87 0 -138.5 -46.5t-51.5 -124.5q0 -42 16.5 -74t43.5 -53.5t61.5 -32t69.5 -10.5q43 0 77 15t57.5 39t35.5 54.5t12 62.5zM460 575q0 21 -11 44.5t-31 43t-49 32.5t-66 13q-47 0 -78.5 -15t-51 -37t-28 -45.5
t-8.5 -41.5q0 -39 14 -67t37.5 -46t54 -26.5t63.5 -8.5q25 0 52.5 9.5t50 28.5t37 48t14.5 68zM82 566q0 41 17 76t46.5 60t69.5 39t86 14q53 0 93 -17t67 -43.5t40.5 -58t13.5 -60.5q0 -36 -9 -65.5t-25 -51.5t-36.5 -37.5t-44.5 -24.5q65 -20 102.5 -67t37.5 -125
q0 -56 -20 -97.5t-53 -68.5t-76 -40t-89 -13q-61 0 -107 17t-76.5 46t-46 68t-15.5 83t10.5 76t29.5 55t44 39t55 27q-52 18 -83 62.5t-31 106.5z" />
    <glyph glyph-name="nine" unicode="9" horiz-adv-x="596" 
d="M462 475q0 40 -11 81.5t-33 75t-54.5 55t-75.5 21.5q-38 0 -68.5 -15.5t-53 -43t-34.5 -65.5t-12 -82q0 -36 10 -70.5t30 -61t50 -43t70 -16.5q36 0 65.5 13t53 35.5t39.5 52t24 63.5zM140 115q26 -43 59.5 -62.5t72.5 -19.5t74 19t62 60t43.5 107t19.5 160
q-31 -60 -81.5 -87.5t-111.5 -27.5q-51 0 -90.5 17.5t-67 49.5t-41.5 75.5t-14 96.5q0 51 15 97t43.5 80.5t70 54.5t94.5 20q59 0 103.5 -26t74 -74t44 -116t14.5 -152q0 -102 -17.5 -177t-50.5 -125t-80 -74.5t-105 -24.5q-57 0 -98.5 23.5t-78.5 77.5z" />
    <glyph glyph-name="colon" unicode=":" horiz-adv-x="205" 
d="M139 0h-73v78h73v-78zM139 392h-73v78h73v-78z" />
    <glyph glyph-name="semicolon" unicode=";" horiz-adv-x="205" 
d="M139 0l-56 -110h-30l46 110h-33v78h73v-78zM139 392h-73v78h73v-78z" />
    <glyph glyph-name="semicolon" unicode="&#x37e;" horiz-adv-x="205" 
d="M139 0l-56 -110h-30l46 110h-33v78h73v-78zM139 392h-73v78h73v-78z" />
    <glyph glyph-name="less" unicode="&#x3c;" horiz-adv-x="600" 
d="M521 140l-441 203v57l441 201v-47l-398 -183l398 -184v-47z" />
    <glyph glyph-name="equal" unicode="=" horiz-adv-x="600" 
d="M523 251h-446v48h446v-48zM523 443h-446v48h446v-48z" />
    <glyph glyph-name="greater" unicode="&#x3e;" horiz-adv-x="600" 
d="M520 343l-441 -203v47l398 184l-398 183v47l441 -201v-57z" />
    <glyph glyph-name="question" unicode="?" horiz-adv-x="472" 
d="M256 0h-73v78h73v-78zM15 642q73 114 195 114q51 0 90 -14.5t65.5 -41t40 -63.5t13.5 -82q0 -35 -8 -63.5t-20.5 -52t-29 -43t-32.5 -37.5l-45 -48q-18 -20 -29 -41t-11 -46v-79h-49v79q0 40 15.5 68t38.5 53l50 53q28 29 48 67t20 95q0 31 -10 58t-29.5 47t-48.5 32
t-66 12q-48 0 -87 -25t-67 -70z" />
    <glyph glyph-name="at" unicode="@" horiz-adv-x="921" 
d="M597 439q-25 26 -57 40.5t-69 14.5q-42 0 -74.5 -22t-54 -56t-32.5 -74.5t-11 -77.5q0 -27 6.5 -51t20 -43t35 -30t50.5 -11q41 0 79.5 18.5t67.5 44.5zM474 541q35 0 71 -12.5t60 -38.5l8 42h49l-58 -358q-3 -20 7.5 -37.5t40.5 -17.5q43 0 75.5 24t54 60.5t32 80.5
t10.5 85q0 69 -26 125t-71.5 95t-108.5 60.5t-138 21.5q-84 0 -154 -29.5t-120.5 -81.5t-78.5 -121.5t-28 -148.5q0 -84 31.5 -151.5t85.5 -115t125.5 -72.5t151.5 -25q68 0 125 18t95 41l31 -37q-46 -28 -110 -48.5t-150 -20.5q-92 0 -171 29.5t-137.5 83.5t-91.5 129.5
t-33 168.5q0 92 33 170.5t90.5 135.5t137 89.5t172.5 32.5q77 0 147.5 -24.5t124 -70t85 -109t31.5 -141.5q0 -50 -12.5 -102t-39.5 -94t-69 -69t-100 -27q-37 0 -63.5 17.5t-36.5 39.5q-32 -27 -69 -41.5t-73 -14.5q-41 0 -71.5 15t-50.5 40.5t-30 58.5t-10 68
q0 48 14.5 97.5t43 89t71 65t98.5 25.5z" />
    <glyph glyph-name="A" unicode="A" horiz-adv-x="598" 
d="M438 273l-143 406l-140 -406h283zM590 0h-55l-80 225h-317l-78 -225h-52l259 742h58z" />
    <glyph glyph-name="B" unicode="B" horiz-adv-x="612" 
d="M332 48q175 0 175 164q0 78 -44.5 114t-138.5 36h-182v-314h190zM323 410q40 0 70.5 12t51.5 33t32 49t11 59q0 61 -44 96t-135 35h-167v-284h181zM90 0v742h226q60 0 102.5 -14t69.5 -38t39.5 -56.5t12.5 -70.5q0 -54 -24 -99.5t-80 -71.5q60 -17 93 -64.5t33 -115.5
q0 -97 -56 -154.5t-177 -57.5h-239z" />
    <glyph glyph-name="C" unicode="C" horiz-adv-x="629" 
d="M588 122q-82 -136 -231 -136q-69 0 -124.5 28.5t-93.5 78.5t-58.5 119.5t-20.5 151.5q0 88 21 160.5t59.5 124t93.5 79.5t123 28q75 0 126 -31.5t92 -90.5l-43 -31q-35 49 -78 76t-98 27q-52 0 -96 -22.5t-76.5 -65.5t-50.5 -105.5t-18 -143.5q0 -80 18.5 -141.5
t51 -104.5t76.5 -65t95 -22q34 0 61.5 8.5t50.5 24t42 37t36 48.5z" />
    <glyph glyph-name="D" unicode="D" horiz-adv-x="672" 
d="M303 48q56 0 103 19.5t80.5 59.5t52 100t18.5 141q0 157 -69.5 241.5t-195.5 84.5h-150v-646h161zM289 742q78 0 138.5 -26t101.5 -74.5t62 -117.5t21 -155q0 -78 -18 -145.5t-55.5 -117t-95.5 -78t-138 -28.5h-215v742h199z" />
    <glyph glyph-name="E" unicode="E" horiz-adv-x="560" 
d="M500 0h-410v742h397v-48h-345v-278h300v-48h-300v-320h358v-48z" />
    <glyph glyph-name="F" unicode="F" horiz-adv-x="525" 
d="M493 694h-351v-290h306v-48h-306v-356h-52v742h403v-48z" />
    <glyph glyph-name="G" unicode="G" horiz-adv-x="692" 
d="M562 87q-37 -54 -89 -77.5t-106 -23.5q-73 0 -130 28.5t-96.5 78.5t-60 119.5t-20.5 151.5q0 88 21.5 160.5t61 124t95.5 79.5t126 28q75 0 129.5 -29.5t94.5 -86.5l-44 -29q-70 95 -181 95q-53 0 -98.5 -22.5t-78.5 -65.5t-52 -105.5t-19 -143.5q0 -80 19 -141.5
t52.5 -104.5t80 -65t101.5 -22q28 0 62 10t62.5 32t48 56t19.5 81v117h-205v48h257v-380h-40z" />
    <glyph glyph-name="H" unicode="H" horiz-adv-x="663" 
d="M573 0h-52v368h-379v-368h-52v742h52v-326h379v326h52v-742z" />
    <glyph glyph-name="I" unicode="I" horiz-adv-x="244" 
d="M148 0h-52v742h52v-742z" />
    <glyph glyph-name="J" unicode="J" horiz-adv-x="486" 
d="M402 166q0 -47 -16.5 -81.5t-42.5 -56.5t-60 -32.5t-68 -10.5q-69 0 -115.5 29.5t-74.5 80.5l43 27q26 -42 59.5 -64.5t88.5 -22.5q21 0 44.5 7t43.5 23t33 42t13 63v572h52v-576z" />
    <glyph glyph-name="K" unicode="K" horiz-adv-x="577" 
d="M569 0h-63l-273 398l-91 -101v-297h-52v742h52v-374l332 374h63l-269 -306z" />
    <glyph glyph-name="L" unicode="L" horiz-adv-x="525" 
d="M490 0h-400v742h52v-694h348v-48z" />
    <glyph glyph-name="M" unicode="M" horiz-adv-x="783" 
d="M693 0h-49v636l-235 -533h-42l-227 533v-636h-49v742h60l238 -562l245 562h59v-742z" />
    <glyph glyph-name="N" unicode="N" horiz-adv-x="663" 
d="M573 0h-57l-376 648v-648h-49v742h56l377 -648v648h49v-742z" />
    <glyph glyph-name="O" unicode="O" horiz-adv-x="693" 
d="M578 365q0 82 -17 145.5t-47.5 107t-73 66t-94.5 22.5q-51 0 -93.5 -22.5t-73 -65.5t-47.5 -105.5t-17 -143.5q0 -80 17 -142t48 -104.5t73 -65t93 -22.5t94 22.5t73.5 65.5t47.5 104t17 138zM633 368q0 -85 -20 -155.5t-57 -121t-90 -78.5t-119 -28q-67 0 -120 28.5
t-90 79t-57 120t-20 151.5q0 88 19.5 160.5t56.5 124t90 79.5t121 28q67 0 120 -28.5t90 -79.5t56.5 -122.5t19.5 -157.5z" />
    <glyph glyph-name="P" unicode="P" horiz-adv-x="582" 
d="M329 367q41 0 71 13.5t49.5 36.5t29 53t9.5 63t-11 62.5t-33.5 51t-57 34.5t-81.5 13h-163v-327h187zM312 742q61 0 105 -18t72 -47.5t41 -67t13 -75.5q0 -42 -13.5 -81t-39.5 -68.5t-64 -47.5t-86 -18h-198v-319h-52v742h222z" />
    <glyph glyph-name="Q" unicode="Q" horiz-adv-x="693" 
d="M500 107q37 43 57.5 108t20.5 150q0 82 -17 145.5t-47.5 107t-73 66t-94.5 22.5q-51 0 -93.5 -22.5t-73 -65.5t-47.5 -105.5t-17 -143.5q0 -80 17 -142t48 -104.5t73 -65t93 -22.5q68 0 118 38l-89 103l37 32zM499 34q-66 -49 -152 -49q-67 0 -120 28.5t-90 79t-57 120
t-20 151.5q0 88 19.5 160.5t56.5 124t90 79.5t121 28q67 0 120 -28.5t90 -79.5t56.5 -122.5t19.5 -157.5q0 -97 -25 -173.5t-73 -127.5l69 -79l-37 -33z" />
    <glyph glyph-name="R" unicode="R" horiz-adv-x="624" 
d="M336 400q41 0 70 13.5t48 35t27.5 49t8.5 55.5q0 61 -45 101t-139 40h-164v-294h194zM566 0h-59l-157 352h-208v-352h-52v742h223q61 0 105 -15t72 -40.5t41.5 -59.5t13.5 -72q0 -72 -38.5 -124t-105.5 -70z" />
    <glyph glyph-name="S" unicode="S" horiz-adv-x="530" 
d="M306 405q33 -15 63.5 -33t54.5 -42.5t38.5 -57t14.5 -76.5q0 -52 -18 -91t-48.5 -65.5t-70.5 -40t-83 -13.5q-70 0 -128 30t-95 77l39 36q35 -44 85 -68.5t100 -24.5q27 0 56 9.5t53 28.5t39.5 48t15.5 67q0 35 -11 60.5t-30.5 45t-46.5 34.5t-58 29l-70 32
q-30 13 -57.5 28.5t-48.5 36.5t-34 48.5t-13 65.5q0 45 16 79.5t43.5 58.5t65 36.5t81.5 12.5q69 0 119.5 -27.5t85.5 -77.5l-41 -32q-28 38 -71 62.5t-94 24.5q-29 0 -56 -8t-48 -24.5t-33.5 -41.5t-12.5 -59q0 -26 8.5 -46t25 -35.5t40.5 -29t54 -26.5z" />
    <glyph glyph-name="T" unicode="T" horiz-adv-x="528" 
d="M508 694h-218v-694h-52v694h-218v48h488v-48z" />
    <glyph glyph-name="U" unicode="U" horiz-adv-x="646" 
d="M562 220q0 -62 -21 -106.5t-54.5 -72.5t-76.5 -41t-86 -13q-46 0 -89.5 13.5t-77 42.5t-53.5 75t-20 111v513h52v-512q0 -50 15.5 -86t41.5 -60t60 -35.5t70 -11.5q34 0 68 10.5t61 33t44 57.5t17 84v520h49v-522z" />
    <glyph glyph-name="V" unicode="V" horiz-adv-x="628" 
d="M593 742l-250 -742h-57l-251 742h55l226 -671l225 671h52z" />
    <glyph glyph-name="W" unicode="W" horiz-adv-x="842" 
d="M807 742l-182 -742h-58l-145 571l-145 -571h-58l-184 742h54l159 -661l147 581h54l148 -583l159 663h51z" />
    <glyph glyph-name="X" unicode="X" horiz-adv-x="596" 
d="M561 0h-62l-202 340l-202 -340h-60l231 385l-216 357h62l185 -311l185 311h60l-215 -355z" />
    <glyph glyph-name="Y" unicode="Y" horiz-adv-x="608" 
d="M573 742l-240 -435v-307h-52v302l-246 440h59l212 -385l212 385h55z" />
    <glyph glyph-name="Z" unicode="Z" horiz-adv-x="552" 
d="M505 0h-463v45l389 649h-369v48h432v-44l-390 -650h401v-48z" />
    <glyph glyph-name="bracketleft" unicode="[" horiz-adv-x="297" 
d="M226 -56h-126v798h126v-39h-77v-720h77v-39z" />
    <glyph glyph-name="backslash" unicode="\" horiz-adv-x="405" 
d="M405 0h-48l-357 742h48z" />
    <glyph glyph-name="bracketright" unicode="]" horiz-adv-x="297" 
d="M197 -56h-126v39h77v720h-77v39h126v-798z" />
    <glyph glyph-name="asciicircum" unicode="^" horiz-adv-x="600" 
d="M529 405h-48l-181 303l-178 -303h-49l200 337h51z" />
    <glyph glyph-name="underscore" unicode="_" horiz-adv-x="600" 
d="M604 -197h-610v43h610v-43z" />
    <glyph glyph-name="grave" unicode="`" horiz-adv-x="333" 
d="M245 642l-17 -27l-174 100l30 41z" />
    <glyph glyph-name="a" unicode="a" horiz-adv-x="515" 
d="M340 295q-73 -9 -119.5 -21.5t-73.5 -31t-37 -43.5t-10 -57q0 -45 30.5 -75.5t88.5 -30.5q47 0 85.5 19.5t86.5 58.5v187zM391 66q-45 -42 -87.5 -59.5t-92.5 -17.5q-39 0 -70 12.5t-52 33.5t-32.5 49t-11.5 59q0 47 16.5 80t50.5 55.5t85.5 35.5t121.5 21l72 8v35
q0 40 -13.5 66t-33.5 41.5t-44 22t-46 6.5q-51 0 -89 -18.5t-76 -55.5l-31 37q43 42 89.5 63t106.5 21q37 0 71 -10.5t59.5 -32.5t40.5 -55t15 -78v-385h-49v66z" />
    <glyph glyph-name="b" unicode="b" 
d="M129 111q41 -38 78.5 -56.5t85.5 -18.5q39 0 72 17t57 48.5t37 75t13 96.5q0 55 -13.5 99.5t-37 76t-56.5 48.5t-72 17q-48 0 -87 -19.5t-77 -54.5v-329zM129 0h-49v756h49v-268q30 34 70.5 53.5t94.5 19.5q48 0 90 -20t73 -57t49 -90t18 -119q0 -65 -17.5 -117.5
t-48.5 -90t-73 -58t-91 -20.5q-46 0 -86.5 15.5t-78.5 57.5v-62z" />
    <glyph glyph-name="c" unicode="c" horiz-adv-x="536" 
d="M500 116q-15 -23 -34.5 -45.5t-45.5 -40.5t-58.5 -29.5t-73.5 -11.5q-50 0 -93.5 19.5t-75 56.5t-49.5 90t-18 120q0 65 17.5 117.5t48.5 90t74.5 58t95.5 20.5q72 0 121.5 -32.5t81.5 -86.5l-41 -27q-26 42 -64 70.5t-99 28.5q-37 0 -70.5 -16t-58.5 -46.5t-39.5 -76
t-14.5 -104.5q0 -51 13.5 -94.5t38.5 -74.5t58.5 -48.5t74.5 -17.5q31 0 57 10t47 25.5t38 35.5t31 40z" />
    <glyph glyph-name="d" unicode="d" 
d="M447 440q-38 35 -77 54.5t-87 19.5q-39 0 -72 -17t-56.5 -48.5t-37 -76t-13.5 -99.5q0 -53 13 -96.5t37 -75t57 -48.5t72 -17q48 0 87 21.5t77 62.5v320zM447 71q-29 -42 -71.5 -62t-93.5 -20q-49 0 -91 20.5t-73 58t-48.5 90t-17.5 117.5q0 66 18 119t49 90t73 57t90 20
q54 0 94.5 -19.5t70.5 -53.5v268h49v-756h-49v71z" />
    <glyph glyph-name="e" unicode="e" horiz-adv-x="554" 
d="M447 320q-4 43 -17.5 79t-35.5 61.5t-51.5 39.5t-65.5 14q-34 0 -63.5 -14.5t-51.5 -40t-36.5 -61.5t-18.5 -78h340zM497 99q-47 -62 -100.5 -86t-114.5 -24q-44 0 -85.5 17.5t-73.5 53.5t-51.5 90t-19.5 127q0 69 18.5 122t49 89t71 54.5t84.5 18.5q65 0 108.5 -26.5
t70 -68t37.5 -91.5t11 -98h-398q0 -57 14.5 -102t39.5 -76t57 -47t67 -16q44 0 89 19t89 77z" />
    <glyph glyph-name="f" unicode="f" horiz-adv-x="284" 
d="M302 704q-11 2 -29.5 4t-38.5 2q-38 0 -59 -16.5t-21 -66.5v-78h123v-43h-123v-506h-49v506h-90v43h90v75q0 72 34.5 102.5t100.5 30.5q18 0 35 -3t27 -5v-45z" />
    <glyph glyph-name="g" unicode="g" 
d="M447 440q-38 35 -77 54.5t-87 19.5q-39 0 -72 -16t-56.5 -46.5t-37 -74.5t-13.5 -99q0 -53 13 -95.5t37 -72.5t57 -46.5t72 -16.5q48 0 85.5 18.5t78.5 56.5v318zM496 -3q0 -94 -53 -146.5t-156 -52.5q-41 0 -74.5 8t-61 21t-48.5 29.5t-37 32.5l32 36q36 -35 82.5 -57.5
t107.5 -22.5q81 0 120 42t39 117v69q-38 -42 -78.5 -57.5t-86.5 -15.5q-49 0 -91 19.5t-73 56t-48.5 88t-17.5 116.5q0 66 18 118t49 88.5t73 55.5t90 19q54 0 94.5 -19.5t70.5 -53.5v62h49v-553z" />
    <glyph glyph-name="h" unicode="h" horiz-adv-x="550" 
d="M475 0h-49v390q0 58 -28.5 91.5t-91.5 33.5q-44 0 -88.5 -20t-88.5 -54v-441h-49v756h49v-268q35 29 81 51.5t99 22.5q78 0 122 -43.5t44 -120.5v-398z" />
    <glyph glyph-name="i" unicode="i" horiz-adv-x="217" 
d="M133 0h-49v550h49v-550zM136 691h-55v65h55v-65z" />
    <glyph glyph-name="j" unicode="j" horiz-adv-x="217" 
d="M133 -43q0 -70 -34 -114.5t-103 -44.5q-23 0 -48.5 8t-45.5 20l17 38q20 -9 38.5 -14t37.5 -5q44 0 66.5 29t22.5 92v584h49v-593zM136 691h-55v65h55v-65z" />
    <glyph glyph-name="k" unicode="k" horiz-adv-x="477" 
d="M457 0h-57l-211 302l-60 -59v-243h-49v756h49v-449l246 243h65l-217 -215z" />
    <glyph glyph-name="l" unicode="l" horiz-adv-x="217" 
d="M133 0h-49v756h49v-756z" />
    <glyph glyph-name="m" unicode="m" horiz-adv-x="813" 
d="M435 0h-49v390q0 58 -21.5 91.5t-78.5 33.5q-36 0 -73.5 -18t-83.5 -56v-441h-49v550h49v-62q38 31 78.5 52.5t81.5 21.5q52 0 83.5 -19.5t48.5 -56.5q38 32 82.5 54t88.5 22q78 0 112 -43.5t34 -120.5v-398h-49v390q0 58 -21.5 91.5t-78.5 33.5q-73 0 -159 -68
q2 -11 3.5 -23t1.5 -26v-398z" />
    <glyph glyph-name="n" unicode="n" horiz-adv-x="550" 
d="M475 0h-49v390q0 58 -28.5 91.5t-91.5 33.5q-44 0 -88.5 -20t-88.5 -54v-441h-49v550h49v-62q37 29 82 51.5t98 22.5q78 0 122 -43.5t44 -120.5v-398z" />
    <glyph glyph-name="o" unicode="o" 
d="M472 275q0 51 -12.5 95t-36.5 76t-58 50t-77 18t-77 -18t-58 -50t-36.5 -76t-12.5 -95t12.5 -95t36.5 -76t58 -50t77 -18t77 18t58 50t36.5 76t12.5 95zM524 275q0 -66 -17 -118.5t-48.5 -90t-75 -57.5t-95.5 -20q-53 0 -96 20t-74.5 57.5t-48.5 90t-17 118.5
q0 65 17 118t48.5 90.5t74.5 57.5t96 20q52 0 95.5 -20t75 -57.5t48.5 -90.5t17 -118z" />
    <glyph glyph-name="p" unicode="p" 
d="M129 110q38 -35 77 -54.5t87 -19.5q39 0 72 17t56.5 48.5t37 76t13.5 99.5q0 53 -13 96.5t-37 75t-57 48.5t-72 17q-48 0 -85.5 -18.5t-78.5 -56.5v-329zM129 488q38 42 78.5 57.5t86.5 15.5q49 0 91 -20.5t73 -58t48.5 -90.5t17.5 -117q0 -66 -18 -119t-49 -90t-73 -57
t-90 -20q-54 0 -94.5 19.5t-70.5 53.5v-264h-49v752h49v-62z" />
    <glyph glyph-name="q" unicode="q" 
d="M447 439q-41 38 -78.5 56.5t-85.5 18.5q-39 0 -72 -17t-57 -48.5t-37 -75t-13 -96.5q0 -55 13.5 -99.5t37 -76t56.5 -48.5t72 -17q48 0 87 19.5t77 54.5v329zM496 -202h-49v264q-30 -34 -70.5 -53.5t-94.5 -19.5q-48 0 -90 20t-73 57t-49 90t-18 119q0 64 17.5 117
t48.5 90.5t73 58t91 20.5q46 0 86.5 -15.5t78.5 -57.5v62h49v-752z" />
    <glyph glyph-name="r" unicode="r" horiz-adv-x="358" 
d="M129 467q11 13 27 29.5t35.5 31t43 24t49.5 9.5q20 0 31.5 -2t30.5 -8l-19 -46q-9 4 -18 6.5t-29 2.5q-21 0 -42.5 -9.5t-41 -25t-37 -34.5t-30.5 -37v-408h-49v550h49v-83z" />
    <glyph glyph-name="s" unicode="s" horiz-adv-x="454" 
d="M264 305q27 -11 52.5 -22.5t45 -29t31.5 -41.5t12 -58q0 -39 -15 -69.5t-40.5 -52t-59.5 -32.5t-71 -11q-56 0 -103 21.5t-85 67.5l37 30q33 -36 72 -54t79 -18q23 0 47.5 7.5t44.5 22t33 35t13 47.5q0 24 -10 41.5t-27.5 30t-39.5 22.5t-46 19l-61 23q-54 20 -88 49.5
t-34 82.5q0 35 13.5 62t37.5 45.5t56.5 28t70.5 9.5q50 0 88.5 -16.5t80.5 -64.5l-37 -30q-32 38 -67 51t-67 13q-23 0 -46 -5.5t-41 -17t-29.5 -28.5t-11.5 -40q0 -17 8 -31t22.5 -25.5t33.5 -21t41 -17.5z" />
    <glyph glyph-name="t" unicode="t" horiz-adv-x="309" 
d="M277 -5q-13 -3 -28 -4.5t-29 -1.5q-69 0 -94.5 32.5t-25.5 102.5v382h-90v43h90v138l49 30v-168h128v-43h-128v-379q0 -53 15.5 -72t56.5 -19q14 0 29.5 1.5t26.5 3.5v-46z" />
    <glyph glyph-name="u" unicode="u" horiz-adv-x="550" 
d="M421 62q-17 -14 -37 -27t-43 -23.5t-48.5 -17t-51.5 -6.5q-78 0 -122 43.5t-44 120.5v398h49v-390q0 -58 28.5 -91.5t91.5 -33.5q44 0 88.5 20t88.5 54v441h49v-550h-49v62z" />
    <glyph glyph-name="v" unicode="v" horiz-adv-x="517" 
d="M487 550l-205 -550h-49l-203 550h53l176 -485l178 485h50z" />
    <glyph glyph-name="w" unicode="w" horiz-adv-x="708" 
d="M678 550l-148 -550h-49l-130 433l-136 -433h-49l-136 550h52l113 -470l132 424h53l126 -422l124 468h48z" />
    <glyph glyph-name="x" unicode="x" horiz-adv-x="512" 
d="M482 0h-61l-167 244l-166 -244h-58l195 284l-184 266h61l153 -224l153 224h58l-182 -264z" />
    <glyph glyph-name="y" unicode="y" horiz-adv-x="511" 
d="M481 550l-226 -631q-12 -33 -24.5 -56t-30 -37.5t-42 -21t-58.5 -6.5q-14 0 -30 4l-28 7v46l30 -6t34 -4q22 0 38 5t28 15.5t21.5 28t18.5 43.5l31 85l-213 528h53l185 -460l163 460h50z" />
    <glyph glyph-name="z" unicode="z" horiz-adv-x="428" 
d="M402 0h-376v40l307 466h-292v43h353v-38l-308 -468h316v-43z" />
    <glyph glyph-name="braceleft" unicode="{" horiz-adv-x="297" 
d="M263 -56h-28q-36 0 -59.5 7.5t-37 24t-18.5 43.5t-5 65v131q0 65 -21.5 87.5t-68.5 22.5v36q47 0 68.5 22.5t21.5 87.5v131q0 38 5 65t18.5 43.5t37 24t59.5 7.5h28v-39h-22q-44 0 -60.5 -20.5t-16.5 -79.5v-122q0 -60 -15.5 -91.5t-55.5 -46.5q40 -15 55.5 -46.5
t15.5 -91.5v-122q0 -59 16.5 -79.5t60.5 -20.5h22v-39z" />
    <glyph glyph-name="bar" unicode="|" horiz-adv-x="333" 
d="M189 -202h-45v958h45v-958z" />
    <glyph glyph-name="braceright" unicode="}" horiz-adv-x="297" 
d="M272 325q-47 0 -68.5 -22.5t-21.5 -87.5v-131q0 -38 -5 -65t-18.5 -43.5t-37 -24t-59.5 -7.5h-28v39h22q44 0 60.5 20.5t16.5 79.5v122q0 60 15.5 91.5t55.5 46.5q-40 15 -55.5 46.5t-15.5 91.5v122q0 59 -16.5 79.5t-60.5 20.5h-22v39h28q36 0 59.5 -7.5t37 -24
t18.5 -43.5t5 -65v-131q0 -65 21.5 -87.5t68.5 -22.5v-36z" />
    <glyph glyph-name="asciitilde" unicode="~" horiz-adv-x="600" 
d="M566 355q-31 -26 -69.5 -44t-75.5 -18q-27 0 -58 11t-63 25q-17 8 -32.5 15t-31.5 12t-31.5 9.5t-30.5 4.5q-35 0 -61.5 -13t-58.5 -36l-18 29q31 26 69.5 44.5t75.5 18.5q29 0 59 -11.5t62 -25.5q31 -15 63 -26q16 -5 32 -9.5t31 -4.5q35 0 61.5 12.5t58.5 35.5z" />
    <glyph glyph-name="Zcaron" horiz-adv-x="552" 
d="M505 0h-463v45l389 649h-369v48h432v-44l-390 -650h401v-48zM429 911l-124 -117h-52l-124 117l20 24l130 -98l130 98z" />
    <glyph glyph-name="Zcaron" unicode="&#x17d;" horiz-adv-x="552" 
d="M505 0h-463v45l389 649h-369v48h432v-44l-390 -650h401v-48zM429 911l-124 -117h-52l-124 117l20 24l130 -98l130 98z" />
    <glyph glyph-name="zcaron" horiz-adv-x="428" 
d="M402 0h-376v40l307 466h-292v43h353v-38l-308 -468h316v-43zM373 732l-124 -117h-52l-124 117l20 24l130 -98l130 98z" />
    <glyph glyph-name="zcaron" unicode="&#x17e;" horiz-adv-x="428" 
d="M402 0h-376v40l307 466h-292v43h353v-38l-308 -468h316v-43zM373 732l-124 -117h-52l-124 117l20 24l130 -98l130 98z" />
    <glyph glyph-name="nonbreakingspace" unicode="&#xa0;" horiz-adv-x="579" 
 />
    <glyph glyph-name="exclamdown" unicode="&#xa1;" horiz-adv-x="263" 
d="M171 -202h-71l17 607h37zM172 472h-73v78h73v-78z" />
    <glyph glyph-name="cent" unicode="&#xa2;" horiz-adv-x="596" 
d="M398 578q-17 8 -35.5 12t-41.5 4q-37 0 -70.5 -16t-58.5 -46.5t-39.5 -76t-14.5 -104.5q0 -62 19 -111.5t54 -80.5zM534 196q-15 -23 -34.5 -45.5t-45.5 -40.5t-58.5 -29.5t-73.5 -11.5q-52 0 -93 19l-79 -176l-41 18l81 181q-48 35 -76 97t-28 147q0 65 17.5 117.5
t48.5 90t74.5 58t95.5 20.5t96 -19l42 95l41 -18l-44 -100q40 -28 68 -77l-41 -27q-11 17 -22.5 31.5t-25.5 26.5l-187 -420q34 -17 74 -17q31 0 57 10t47 25.5t38 35.5t31 40z" />
    <glyph glyph-name="sterling" unicode="&#xa3;" horiz-adv-x="596" 
d="M442 352v-48h-219q1 -8 1 -18v-18q0 -58 -21 -113.5t-69 -106.5h415v-48h-479v46q24 14 42 37t31 52.5t19.5 62.5t6.5 68v19t-1 19h-77v48h69q-8 41 -17 88t-9 85q0 52 12.5 94.5t38.5 72.5t66 46.5t95 16.5q123 0 187 -105l-46 -28q-26 45 -60.5 65.5t-81.5 20.5
q-78 0 -117 -47.5t-39 -128.5q0 -42 9.5 -90t17.5 -90h226z" />
    <glyph glyph-name="currency" unicode="&#xa4;" horiz-adv-x="570" 
d="M427 369q0 28 -10 54t-28.5 46t-45 32t-58.5 12q-31 0 -56.5 -12t-44 -31.5t-28.5 -46t-10 -54.5q0 -29 10.5 -54.5t29.5 -44.5t44.5 -30.5t54.5 -11.5q31 0 57 11t45 30t29.5 45t10.5 55zM530 156l-32 -32l-97 96q-30 -23 -58 -31t-58 -8q-29 0 -58.5 9.5t-55.5 30.5
l-99 -97l-32 32l97 99q-20 26 -29.5 55.5t-9.5 58.5q0 30 8.5 59.5t29.5 55.5l-96 98l32 32l97 -95q27 22 57 31.5t59 9.5q30 0 60 -9t57 -31l96 94l32 -32l-94 -96q22 -27 30.5 -57t8.5 -60t-9 -58.5t-30 -57.5z" />
    <glyph glyph-name="yen" unicode="&#xa5;" horiz-adv-x="596" 
d="M561 742l-206 -375h144v-43h-168l-4 -7v-78h172v-43h-172v-196h-52v196h-172v43h172v73l-7 12h-165v43h141l-209 375h59l206 -375l206 375h55z" />
    <glyph glyph-name="brokenbar" unicode="&#xa6;" horiz-adv-x="600" 
d="M313 -197h-45v388h45v-388zM313 351h-45v388h45v-388z" />
    <glyph glyph-name="section" unicode="&#xa7;" horiz-adv-x="429" 
d="M207 259q20 -14 43 -32t43 -34q28 20 40.5 46.5t12.5 54.5q0 20 -3.5 35t-11 28t-20 24.5t-29.5 24.5l-57 42q-20 15 -40.5 30.5t-46.5 35.5q-29 -19 -42 -44.5t-13 -53.5q0 -20 3 -35.5t10.5 -29t20 -25.5t32.5 -26zM323 441q39 -29 55 -63.5t16 -72.5q0 -42 -17.5 -76
t-61.5 -63q21 -24 32.5 -49.5t10.5 -54.5q0 -24 -11 -48t-31 -43.5t-49 -32t-66 -12.5q-45 0 -84 13t-71 42l30 36q29 -25 61 -34.5t65 -9.5q18 0 36.5 6t33.5 17.5t24.5 26.5t9.5 33q0 19 -5 35.5t-17 33t-32.5 35t-50.5 40.5l-91 66q-44 31 -59.5 63t-15.5 75
q0 34 19 71.5t63 66.5q-19 22 -25.5 41t-6.5 51q0 23 9.5 45t28.5 39t47.5 27.5t65.5 10.5q24 0 51 -7t56 -26l-27 -38q-19 12 -40 20t-41 8q-18 0 -35.5 -5.5t-31.5 -15.5t-22.5 -25t-8.5 -33q0 -20 5 -34.5t16 -28.5t28.5 -28.5t42.5 -32.5z" />
    <glyph glyph-name="dieresis" unicode="&#xa8;" horiz-adv-x="333" 
d="M124 642h-73v73h73v-73zM282 642h-73v73h73v-73z" />
    <glyph glyph-name="copyright" unicode="&#xa9;" horiz-adv-x="866" 
d="M588 227q-32 -50 -67.5 -69t-82.5 -19q-45 0 -80 17.5t-59 48t-37 72t-13 90.5q0 52 13 95.5t37.5 74.5t59.5 48t79 17q47 0 79 -18t65 -61l-38 -24q-26 32 -50.5 46t-56.5 14q-61 0 -100.5 -47.5t-39.5 -141.5q0 -46 11 -81t30 -59t44.5 -36t54.5 -12q33 0 62.5 17
t52.5 55zM770 370q0 70 -26.5 131.5t-72.5 107.5t-107 73t-131 27t-131.5 -27t-107 -73t-72 -107.5t-26.5 -131.5t26.5 -131.5t72 -107t107 -72t131.5 -26.5t131 26.5t107 72t72.5 107t26.5 131.5zM818 371q0 -80 -30 -150.5t-82.5 -122.5t-122.5 -82t-150 -30t-150.5 30
t-122.5 82t-82 122.5t-30 150.5t30 150t82 122.5t122.5 82.5t150.5 30t150 -30t122.5 -82.5t82.5 -122.5t30 -150z" />
    <glyph glyph-name="ordfeminine" unicode="&#xaa;" horiz-adv-x="356" 
d="M251 592q-21 -2 -49 -5t-53.5 -11t-43 -24t-17.5 -44q0 -23 14 -38t46 -15q26 0 50.5 11.5t52.5 32.5v93zM296 419h-45v32q-52 -39 -110 -39q-49 0 -75 28t-26 69q0 40 21.5 63.5t54 35.5t69 16.5t66.5 7.5v11q0 37 -20 54t-49 17t-54.5 -11.5t-55.5 -39.5l-30 32
q34 31 68 46.5t72 15.5q58 0 86 -33.5t28 -81.5v-223z" />
    <glyph glyph-name="guillemotleft" unicode="&#xab;" horiz-adv-x="479" 
d="M253 72l-28 -28l-189 216v32l189 216l28 -28l-162 -204zM445 72l-28 -28l-189 216v32l189 216l28 -28l-162 -204z" />
    <glyph glyph-name="logicalnot" unicode="&#xac;" horiz-adv-x="600" 
d="M521 252h-49v191h-391v48h440v-239z" />
    <glyph glyph-name="registered" unicode="&#xae;" horiz-adv-x="866" 
d="M444 394q24 0 41.5 7t28 19t15.5 27t5 30q0 32 -25 53t-84 21h-90v-157h109zM591 149h-52l-81 202h-123v-202h-49v445h143q79 0 116 -34t37 -82q0 -38 -20 -70.5t-59 -46.5zM770 371q0 70 -26.5 131.5t-72.5 107.5t-107.5 72.5t-131.5 26.5t-131 -26.5t-106.5 -72.5
t-72 -107.5t-26.5 -131.5t26.5 -131.5t72 -107.5t106.5 -72.5t131 -26.5t131.5 26.5t107.5 72.5t72.5 107.5t26.5 131.5zM818 371q0 -80 -30 -150.5t-82.5 -122.5t-122.5 -82t-150 -30t-150.5 30t-122.5 82t-82 122.5t-30 150.5t30 150t82 122.5t122.5 82.5t150.5 30
t150 -30t122.5 -82.5t82.5 -122.5t30 -150z" />
    <glyph glyph-name="macron" unicode="&#xaf;" horiz-adv-x="333" 
d="M291 657h-249v43h249v-43z" />
    <glyph glyph-name="macron" unicode="&#x2c9;" horiz-adv-x="333" 
d="M291 657h-249v43h249v-43z" />
    <glyph glyph-name="degree" unicode="&#xb0;" horiz-adv-x="393" 
d="M288 619q0 19 -7 36t-19.5 30t-29 20.5t-35.5 7.5t-35.5 -7.5t-28.5 -20.5t-19 -30t-7 -36t7 -36t19 -30t28.5 -20.5t35.5 -7.5t35.5 7.5t29 20.5t19.5 30t7 36zM332 619q0 -28 -10.5 -53t-29 -43.5t-43 -29.5t-52.5 -11t-52.5 11t-43 29.5t-29 43.5t-10.5 53t10.5 53
t29 43.5t43 29.5t52.5 11t52.5 -11t43 -29.5t29 -43.5t10.5 -53z" />
    <glyph glyph-name="plusminus" unicode="&#xb1;" horiz-adv-x="600" 
d="M520 13h-440v48h440v-48zM523 341h-198v-197h-49v197h-199v48h199v197h49v-197h198v-48z" />
    <glyph glyph-name="twosuperior" unicode="&#xb2;" horiz-adv-x="379" 
d="M323 342h-263v32l93 87q18 17 37 36t35 40t26 44.5t10 49.5q0 43 -23 61t-58 18q-26 0 -49.5 -10.5t-44.5 -39.5l-39 25q52 72 132 72q56 0 93 -32t37 -94q0 -38 -17 -72t-42.5 -65t-55.5 -58.5t-57 -50.5h186v-43z" />
    <glyph glyph-name="threesuperior" unicode="&#xb3;" horiz-adv-x="379" 
d="M135 534v43h42q38 0 63.5 21.5t25.5 53.5q0 29 -22.5 43.5t-62.5 14.5q-49 0 -89 -43l-34 30q49 60 122 60q64 0 99 -29.5t35 -75.5q0 -31 -15.5 -54.5t-44.5 -39.5q32 -12 53 -39t21 -61q0 -57 -37 -92t-105 -35q-40 0 -74.5 18.5t-59.5 49.5l35 28q18 -22 45.5 -35.5
t54.5 -13.5q41 0 67 19.5t26 60.5q0 36 -28.5 56t-76.5 20h-40z" />
    <glyph glyph-name="acute" unicode="&#xb4;" horiz-adv-x="333" 
d="M279 715l-174 -100l-17 27l161 114z" />
    <glyph glyph-name="mu" unicode="&#xb5;" horiz-adv-x="550" 
d="M421 62q-17 -14 -37 -27t-43 -23.5t-48.5 -17t-51.5 -6.5q-37 0 -66.5 10.5t-50.5 29.5v-230h-49v752h49v-390q0 -58 28.5 -91.5t91.5 -33.5q44 0 88.5 20t88.5 54v441h49v-550h-49v62z" />
    <glyph glyph-name="mu" unicode="&#x3bc;" horiz-adv-x="550" 
d="M421 62q-17 -14 -37 -27t-43 -23.5t-48.5 -17t-51.5 -6.5q-37 0 -66.5 10.5t-50.5 29.5v-230h-49v752h49v-390q0 -58 28.5 -91.5t91.5 -33.5q44 0 88.5 20t88.5 54v441h49v-550h-49v62z" />
    <glyph glyph-name="paragraph" unicode="&#xb6;" horiz-adv-x="514" 
d="M459 700h-34v-761h-45v761h-72v-761h-45v402q-51 3 -93.5 18.5t-72.5 41.5t-47 61.5t-17 79.5q0 43 13 80t41.5 64t72 42t105.5 15h194v-43z" />
    <glyph glyph-name="periodcentered" unicode="&#xb7;" horiz-adv-x="205" 
d="M139 332h-73v78h73v-78z" />
    <glyph glyph-name="periodcentered" unicode="&#x2219;" horiz-adv-x="205" 
d="M139 332h-73v78h73v-78z" />
    <glyph glyph-name="cedilla" unicode="&#xb8;" horiz-adv-x="333" 
d="M180 -28q45 0 65 -21.5t20 -53.5q0 -21 -8.5 -36.5t-22.5 -25.5t-31 -14.5t-35 -4.5q-8 0 -22 1t-26 3v37q9 -2 18 -2.5t14 -0.5q32 0 51 10t19 34q0 22 -16.5 33.5t-42.5 11.5h-16v57h33v-28z" />
    <glyph glyph-name="onesuperior" unicode="&#xb9;" horiz-adv-x="379" 
d="M218 341h-45v337q-14 -8 -34 -13.5t-41 -7.5v41q23 3 47.5 15.5t30.5 33.5h42v-406z" />
    <glyph glyph-name="ordmasculine" unicode="&#xba;" horiz-adv-x="396" 
d="M303 584q0 57 -28.5 93.5t-76.5 36.5t-76 -36.5t-28 -93.5t28 -93t76 -36t76.5 36t28.5 93zM351 584q0 -78 -42 -125t-111 -47t-110.5 47t-41.5 125t41.5 125.5t110.5 47.5q34 0 62 -12.5t48.5 -35.5t31.5 -54.5t11 -70.5z" />
    <glyph glyph-name="guillemotright" unicode="&#xbb;" horiz-adv-x="479" 
d="M251 260l-189 -216l-28 28l162 204l-162 204l28 28l189 -216v-32zM443 260l-189 -216l-28 28l162 204l-162 204l28 28l189 -216v-32z" />
    <glyph glyph-name="onequarter" unicode="&#xbc;" horiz-adv-x="819" 
d="M645 139v208l-145 -208h145zM218 341h-45v337q-14 -8 -34 -13.5t-41 -7.5v41q23 3 47.5 15.5t30.5 33.5h42v-406zM654 737l-468 -756l-36 19l468 756zM736 96h-46v-96h-45v96h-203v35l190 275h58v-267h46v-43z" />
    <glyph glyph-name="onehalf" unicode="&#xbd;" horiz-adv-x="819" 
d="M218 341h-45v337q-14 -8 -34 -13.5t-41 -7.5v41q23 3 47.5 15.5t30.5 33.5h42v-406zM632 737l-469 -756l-36 19l469 756zM763 0h-263v33l93 87q18 17 37 36t35 40t26 44.5t10 49.5q0 43 -23 61t-58 18q-26 0 -49.5 -10.5t-44.5 -39.5l-39 25q52 72 132 72q56 0 93 -32
t37 -94q0 -38 -17 -72.5t-42.5 -65.5t-55.5 -58.5t-57 -50.5h186v-43z" />
    <glyph glyph-name="threequarters" unicode="&#xbe;" horiz-adv-x="819" 
d="M645 139v208l-145 -208h145zM135 534v43h42q38 0 63.5 21.5t25.5 53.5q0 29 -22.5 43.5t-62.5 14.5q-49 0 -89 -43l-34 30q49 60 122 60q64 0 99 -29.5t35 -75.5q0 -31 -15.5 -54.5t-44.5 -39.5q32 -12 53 -39t21 -61q0 -57 -37 -92t-105 -35q-40 0 -74.5 18.5
t-59.5 49.5l35 28q18 -22 45.5 -35.5t54.5 -13.5q41 0 67 19.5t26 60.5q0 36 -28.5 56t-76.5 20h-40zM736 96h-46v-96h-45v96h-203v35l190 275h58v-267h46v-43zM692 737l-468 -756l-36 19l468 756z" />
    <glyph glyph-name="questiondown" unicode="&#xbf;" horiz-adv-x="472" 
d="M457 -88q-73 -114 -195 -114q-51 0 -90 14.5t-65.5 41t-40 63.5t-13.5 82q0 35 8 63.5t20.5 52t28.5 43t33 37.5l45 48q18 20 29 41t11 46v75h49v-75q0 -40 -15.5 -68t-38.5 -53l-50 -53q-28 -29 -48 -67t-20 -95q0 -31 10 -58t29.5 -47.5t48.5 -32t66 -11.5q48 0 87 25
t67 70zM289 472h-73v78h73v-78z" />
    <glyph glyph-name="Agrave" unicode="&#xc0;" horiz-adv-x="598" 
d="M438 273l-143 406l-140 -406h283zM590 0h-55l-80 225h-317l-78 -225h-52l259 742h58zM360 821l-17 -27l-174 100l30 41z" />
    <glyph glyph-name="Aacute" unicode="&#xc1;" horiz-adv-x="598" 
d="M438 273l-143 406l-140 -406h283zM590 0h-55l-80 225h-317l-78 -225h-52l259 742h58zM418 894l-174 -100l-17 27l161 114z" />
    <glyph glyph-name="Acircumflex" unicode="&#xc2;" horiz-adv-x="598" 
d="M438 273l-143 406l-140 -406h283zM590 0h-55l-80 225h-317l-78 -225h-52l259 742h58zM446 818l-20 -24l-130 98l-130 -98l-20 24l124 117h52z" />
    <glyph glyph-name="Atilde" unicode="&#xc3;" horiz-adv-x="598" 
d="M438 273l-143 406l-140 -406h283zM590 0h-55l-80 225h-317l-78 -225h-52l259 742h58zM318 849q12 -5 23 -8t22 -3q19 0 30.5 6.5t27.5 21.5l20 -20q-17 -26 -39.5 -38.5t-42.5 -12.5q-23 0 -50 11l-37 15q-11 5 -22 8t-22 3q-19 0 -30.5 -7t-27.5 -22l-20 20
q17 26 39.5 39t42.5 13q21 0 48 -11z" />
    <glyph glyph-name="Adieresis" unicode="&#xc4;" horiz-adv-x="598" 
d="M438 273l-143 406l-140 -406h283zM590 0h-55l-80 225h-317l-78 -225h-52l259 742h58zM252 794h-73v73h73v-73zM410 794h-73v73h73v-73z" />
    <glyph glyph-name="Aring" unicode="&#xc5;" horiz-adv-x="598" 
d="M438 273l-143 406l-140 -406h283zM353 800q0 23 -16 41t-41 18q-24 0 -41 -17.5t-17 -41.5t17 -41t41 -17q25 0 41 17.5t16 40.5zM590 0h-55l-80 225h-317l-78 -225h-52l252 722q-22 11 -36 31.5t-14 46.5q0 18 7 33.5t18.5 27.5t27 19t33.5 7q37 0 61 -26.5t24 -60.5
q0 -25 -13 -46t-36 -32z" />
    <glyph glyph-name="AE" unicode="&#xc6;" horiz-adv-x="912" 
d="M442 272v417l-231 -417h231zM852 0h-410v224h-258l-124 -224h-58l417 741h420v-48h-345v-277h300v-48h-300v-320h358v-48z" />
    <glyph glyph-name="Ccedilla" unicode="&#xc7;" horiz-adv-x="629" 
d="M588 122q-82 -136 -231 -136h-13v-14q45 0 65 -21.5t20 -53.5q0 -21 -8.5 -36.5t-22.5 -25.5t-31 -14.5t-35 -4.5q-8 0 -22 1t-26 3v37q9 -2 18 -2.5t14 -0.5q32 0 51 10t19 34q0 22 -16.5 33.5t-42.5 11.5h-16v45q-59 9 -106 41t-79 81t-49 114t-17 140q0 88 21 160.5
t59.5 124t93.5 79.5t123 28q75 0 126 -31.5t92 -90.5l-43 -31q-35 49 -78 76t-98 27q-52 0 -96 -22.5t-76.5 -65.5t-50.5 -105.5t-18 -143.5q0 -80 18.5 -141.5t51 -104.5t76.5 -65t95 -22q34 0 61.5 8.5t50.5 24t42 37t36 48.5z" />
    <glyph glyph-name="Egrave" unicode="&#xc8;" horiz-adv-x="560" 
d="M500 0h-410v742h397v-48h-345v-278h300v-48h-300v-320h358v-48zM363 821l-17 -27l-174 100l30 41z" />
    <glyph glyph-name="Eacute" unicode="&#xc9;" horiz-adv-x="560" 
d="M500 0h-410v742h397v-48h-345v-278h300v-48h-300v-320h358v-48zM402 894l-174 -100l-17 27l161 114z" />
    <glyph glyph-name="Ecircumflex" unicode="&#xca;" horiz-adv-x="560" 
d="M500 0h-410v742h397v-48h-345v-278h300v-48h-300v-320h358v-48zM439 818l-20 -24l-130 98l-130 -98l-20 24l124 117h52z" />
    <glyph glyph-name="Edieresis" unicode="&#xcb;" horiz-adv-x="560" 
d="M500 0h-410v742h397v-48h-345v-278h300v-48h-300v-320h358v-48zM244 794h-73v73h73v-73zM402 794h-73v73h73v-73z" />
    <glyph glyph-name="Igrave" unicode="&#xcc;" horiz-adv-x="244" 
d="M148 0h-52v742h52v-742zM182 821l-17 -27l-174 100l30 41z" />
    <glyph glyph-name="Iacute" unicode="&#xcd;" horiz-adv-x="244" 
d="M148 0h-52v742h52v-742zM254 894l-174 -100l-17 27l161 114z" />
    <glyph glyph-name="Icircumflex" unicode="&#xce;" horiz-adv-x="244" 
d="M148 0h-52v742h52v-742zM272 818l-20 -24l-130 98l-130 -98l-20 24l124 117h52z" />
    <glyph glyph-name="Idieresis" unicode="&#xcf;" horiz-adv-x="244" 
d="M148 0h-52v742h52v-742zM79 794h-73v73h73v-73zM237 794h-73v73h73v-73z" />
    <glyph glyph-name="Eth" unicode="&#xd0;" horiz-adv-x="672" 
d="M303 48q56 0 103 19.5t80.5 59.5t52 100t18.5 141q0 157 -69.5 241.5t-195.5 84.5h-150v-298h199v-43h-199v-305h161zM289 742q78 0 138.5 -26t101.5 -74.5t62 -117.5t21 -155q0 -78 -18 -145.5t-55.5 -117t-95.5 -78t-138 -28.5h-215v353h-82v43h82v346h199z" />
    <glyph glyph-name="Ntilde" unicode="&#xd1;" horiz-adv-x="663" 
d="M573 0h-57l-376 648v-648h-49v742h56l377 -648v648h49v-742zM356 849q12 -5 23 -8t22 -3q19 0 30.5 6.5t27.5 21.5l20 -20q-17 -26 -39.5 -38.5t-42.5 -12.5q-23 0 -50 11l-37 15q-11 5 -22 8t-22 3q-19 0 -30.5 -7t-27.5 -22l-20 20q17 26 39.5 39t42.5 13q21 0 48 -11z
" />
    <glyph glyph-name="Ograve" unicode="&#xd2;" horiz-adv-x="693" 
d="M578 365q0 82 -17 145.5t-47.5 107t-73 66t-94.5 22.5q-51 0 -93.5 -22.5t-73 -65.5t-47.5 -105.5t-17 -143.5q0 -80 17 -142t48 -104.5t73 -65t93 -22.5t94 22.5t73.5 65.5t47.5 104t17 138zM633 368q0 -85 -20 -155.5t-57 -121t-90 -78.5t-119 -28q-67 0 -120 28.5
t-90 79t-57 120t-20 151.5q0 88 19.5 160.5t56.5 124t90 79.5t121 28q67 0 120 -28.5t90 -79.5t56.5 -122.5t19.5 -157.5zM411 821l-17 -27l-174 100l30 41z" />
    <glyph glyph-name="Oacute" unicode="&#xd3;" horiz-adv-x="693" 
d="M578 365q0 82 -17 145.5t-47.5 107t-73 66t-94.5 22.5q-51 0 -93.5 -22.5t-73 -65.5t-47.5 -105.5t-17 -143.5q0 -80 17 -142t48 -104.5t73 -65t93 -22.5t94 22.5t73.5 65.5t47.5 104t17 138zM633 368q0 -85 -20 -155.5t-57 -121t-90 -78.5t-119 -28q-67 0 -120 28.5
t-90 79t-57 120t-20 151.5q0 88 19.5 160.5t56.5 124t90 79.5t121 28q67 0 120 -28.5t90 -79.5t56.5 -122.5t19.5 -157.5zM474 894l-174 -100l-17 27l161 114z" />
    <glyph glyph-name="Ocircumflex" unicode="&#xd4;" horiz-adv-x="693" 
d="M578 365q0 82 -17 145.5t-47.5 107t-73 66t-94.5 22.5q-51 0 -93.5 -22.5t-73 -65.5t-47.5 -105.5t-17 -143.5q0 -80 17 -142t48 -104.5t73 -65t93 -22.5t94 22.5t73.5 65.5t47.5 104t17 138zM633 368q0 -85 -20 -155.5t-57 -121t-90 -78.5t-119 -28q-67 0 -120 28.5
t-90 79t-57 120t-20 151.5q0 88 19.5 160.5t56.5 124t90 79.5t121 28q67 0 120 -28.5t90 -79.5t56.5 -122.5t19.5 -157.5zM497 818l-20 -24l-130 98l-130 -98l-20 24l124 117h52z" />
    <glyph glyph-name="Otilde" unicode="&#xd5;" horiz-adv-x="693" 
d="M578 365q0 82 -17 145.5t-47.5 107t-73 66t-94.5 22.5q-51 0 -93.5 -22.5t-73 -65.5t-47.5 -105.5t-17 -143.5q0 -80 17 -142t48 -104.5t73 -65t93 -22.5t94 22.5t73.5 65.5t47.5 104t17 138zM633 368q0 -85 -20 -155.5t-57 -121t-90 -78.5t-119 -28q-67 0 -120 28.5
t-90 79t-57 120t-20 151.5q0 88 19.5 160.5t56.5 124t90 79.5t121 28q67 0 120 -28.5t90 -79.5t56.5 -122.5t19.5 -157.5zM372 849q12 -5 23 -8t22 -3q19 0 30.5 6.5t27.5 21.5l20 -20q-17 -26 -39.5 -38.5t-42.5 -12.5q-23 0 -50 11l-37 15q-11 5 -22 8t-22 3
q-19 0 -30.5 -7t-27.5 -22l-20 20q17 26 39.5 39t42.5 13q21 0 48 -11z" />
    <glyph glyph-name="Odieresis" unicode="&#xd6;" horiz-adv-x="693" 
d="M578 365q0 82 -17 145.5t-47.5 107t-73 66t-94.5 22.5q-51 0 -93.5 -22.5t-73 -65.5t-47.5 -105.5t-17 -143.5q0 -80 17 -142t48 -104.5t73 -65t93 -22.5t94 22.5t73.5 65.5t47.5 104t17 138zM633 368q0 -85 -20 -155.5t-57 -121t-90 -78.5t-119 -28q-67 0 -120 28.5
t-90 79t-57 120t-20 151.5q0 88 19.5 160.5t56.5 124t90 79.5t121 28q67 0 120 -28.5t90 -79.5t56.5 -122.5t19.5 -157.5zM306 794h-73v73h73v-73zM464 794h-73v73h73v-73z" />
    <glyph glyph-name="multiply" unicode="&#xd7;" horiz-adv-x="600" 
d="M490 219l-35 -32l-155 151l-156 -152l-32 33l154 153l-155 151l33 34l156 -153l154 151l34 -33l-155 -150z" />
    <glyph glyph-name="Oslash" unicode="&#xd8;" horiz-adv-x="693" 
d="M202 96q59 -61 144 -61q51 0 94 22.5t73.5 65.5t47.5 104t17 138q0 78 -15 139.5t-44 105.5zM491 645q-59 61 -145 61q-51 0 -93.5 -22.5t-73 -65.5t-47.5 -105.5t-17 -143.5q0 -76 15.5 -135.5t43.5 -102.5zM549 659q41 -52 62.5 -126t21.5 -165q0 -85 -20 -155.5
t-57 -121t-90 -78.5t-119 -28q-52 0 -95 17t-78 48l-40 -65l-36 23l46 75q-41 51 -62.5 122.5t-21.5 158.5q0 88 19.5 160.5t56.5 124t90 79.5t121 28q52 0 95 -16.5t77 -48.5l40 65l36 -23z" />
    <glyph glyph-name="Ugrave" unicode="&#xd9;" horiz-adv-x="646" 
d="M562 220q0 -62 -21 -106.5t-54.5 -72.5t-76.5 -41t-86 -13q-46 0 -89.5 13.5t-77 42.5t-53.5 75t-20 111v513h52v-512q0 -50 15.5 -86t41.5 -60t60 -35.5t70 -11.5q34 0 68 10.5t61 33t44 57.5t17 84v520h49v-522zM386 821l-17 -27l-174 100l30 41z" />
    <glyph glyph-name="Uacute" unicode="&#xda;" horiz-adv-x="646" 
d="M562 220q0 -62 -21 -106.5t-54.5 -72.5t-76.5 -41t-86 -13q-46 0 -89.5 13.5t-77 42.5t-53.5 75t-20 111v513h52v-512q0 -50 15.5 -86t41.5 -60t60 -35.5t70 -11.5q34 0 68 10.5t61 33t44 57.5t17 84v520h49v-522zM453 894l-174 -100l-17 27l161 114z" />
    <glyph glyph-name="Ucircumflex" unicode="&#xdb;" horiz-adv-x="646" 
d="M562 220q0 -62 -21 -106.5t-54.5 -72.5t-76.5 -41t-86 -13q-46 0 -89.5 13.5t-77 42.5t-53.5 75t-20 111v513h52v-512q0 -50 15.5 -86t41.5 -60t60 -35.5t70 -11.5q34 0 68 10.5t61 33t44 57.5t17 84v520h49v-522zM473 818l-20 -24l-130 98l-130 -98l-20 24l124 117h52z
" />
    <glyph glyph-name="Udieresis" unicode="&#xdc;" horiz-adv-x="646" 
d="M562 220q0 -62 -21 -106.5t-54.5 -72.5t-76.5 -41t-86 -13q-46 0 -89.5 13.5t-77 42.5t-53.5 75t-20 111v513h52v-512q0 -50 15.5 -86t41.5 -60t60 -35.5t70 -11.5q34 0 68 10.5t61 33t44 57.5t17 84v520h49v-522zM280 794h-73v73h73v-73zM438 794h-73v73h73v-73z" />
    <glyph glyph-name="Yacute" unicode="&#xdd;" horiz-adv-x="608" 
d="M573 742l-240 -435v-307h-52v302l-246 440h59l212 -385l212 385h55zM450 894l-174 -100l-17 27l161 114z" />
    <glyph glyph-name="Thorn" unicode="&#xde;" horiz-adv-x="582" 
d="M329 215q41 0 71 13.5t49.5 36.5t29 53t9.5 63t-11 62.5t-33.5 51t-57 34.5t-81.5 13h-163v-327h187zM312 590q61 0 105 -18t72 -47.5t41 -67t13 -75.5q0 -42 -13.5 -81t-39.5 -68.5t-64 -47.5t-86 -18h-198v-167h-52v742h52v-152h170z" />
    <glyph glyph-name="germandbls" unicode="&#xdf;" horiz-adv-x="560" 
d="M221 376v48h57q27 0 52 11t44 31t30.5 48t11.5 61q0 25 -8.5 49t-26 43t-44.5 30.5t-63 11.5q-31 0 -57.5 -8.5t-46 -26.5t-30.5 -44.5t-11 -62.5v-567h-49v564q0 99 53.5 145.5t143.5 46.5q40 0 74.5 -13t59.5 -37t39 -57.5t14 -73.5q0 -55 -28.5 -101t-82.5 -71
q75 -19 115 -68t40 -118q0 -60 -18.5 -103t-47 -71t-62.5 -41t-66 -13t-67.5 9t-63.5 23l23 41q23 -11 51 -18.5t54 -7.5q23 0 48.5 10.5t47 32.5t35.5 56.5t14 81.5q0 38 -14.5 67.5t-39 50t-57 31t-68.5 10.5h-56z" />
    <glyph glyph-name="agrave" unicode="&#xe0;" horiz-adv-x="515" 
d="M340 295q-73 -9 -119.5 -21.5t-73.5 -31t-37 -43.5t-10 -57q0 -45 30.5 -75.5t88.5 -30.5q47 0 85.5 19.5t86.5 58.5v187zM391 66q-45 -42 -87.5 -59.5t-92.5 -17.5q-39 0 -70 12.5t-52 33.5t-32.5 49t-11.5 59q0 47 16.5 80t50.5 55.5t85.5 35.5t121.5 21l72 8v35
q0 40 -13.5 66t-33.5 41.5t-44 22t-46 6.5q-51 0 -89 -18.5t-76 -55.5l-31 37q43 42 89.5 63t106.5 21q37 0 71 -10.5t59.5 -32.5t40.5 -55t15 -78v-385h-49v66zM334 642l-17 -27l-174 100l30 41z" />
    <glyph glyph-name="aacute" unicode="&#xe1;" horiz-adv-x="515" 
d="M340 295q-73 -9 -119.5 -21.5t-73.5 -31t-37 -43.5t-10 -57q0 -45 30.5 -75.5t88.5 -30.5q47 0 85.5 19.5t86.5 58.5v187zM391 66q-45 -42 -87.5 -59.5t-92.5 -17.5q-39 0 -70 12.5t-52 33.5t-32.5 49t-11.5 59q0 47 16.5 80t50.5 55.5t85.5 35.5t121.5 21l72 8v35
q0 40 -13.5 66t-33.5 41.5t-44 22t-46 6.5q-51 0 -89 -18.5t-76 -55.5l-31 37q43 42 89.5 63t106.5 21q37 0 71 -10.5t59.5 -32.5t40.5 -55t15 -78v-385h-49v66zM379 715l-174 -100l-17 27l161 114z" />
    <glyph glyph-name="acircumflex" unicode="&#xe2;" horiz-adv-x="515" 
d="M340 295q-73 -9 -119.5 -21.5t-73.5 -31t-37 -43.5t-10 -57q0 -45 30.5 -75.5t88.5 -30.5q47 0 85.5 19.5t86.5 58.5v187zM391 66q-45 -42 -87.5 -59.5t-92.5 -17.5q-39 0 -70 12.5t-52 33.5t-32.5 49t-11.5 59q0 47 16.5 80t50.5 55.5t85.5 35.5t121.5 21l72 8v35
q0 40 -13.5 66t-33.5 41.5t-44 22t-46 6.5q-51 0 -89 -18.5t-76 -55.5l-31 37q43 42 89.5 63t106.5 21q37 0 71 -10.5t59.5 -32.5t40.5 -55t15 -78v-385h-49v66zM406 639l-20 -24l-130 98l-130 -98l-20 24l124 117h52z" />
    <glyph glyph-name="atilde" unicode="&#xe3;" horiz-adv-x="515" 
d="M340 295q-73 -9 -119.5 -21.5t-73.5 -31t-37 -43.5t-10 -57q0 -45 30.5 -75.5t88.5 -30.5q47 0 85.5 19.5t86.5 58.5v187zM391 66q-45 -42 -87.5 -59.5t-92.5 -17.5q-39 0 -70 12.5t-52 33.5t-32.5 49t-11.5 59q0 47 16.5 80t50.5 55.5t85.5 35.5t121.5 21l72 8v35
q0 40 -13.5 66t-33.5 41.5t-44 22t-46 6.5q-51 0 -89 -18.5t-76 -55.5l-31 37q43 42 89.5 63t106.5 21q37 0 71 -10.5t59.5 -32.5t40.5 -55t15 -78v-385h-49v66zM275 697q12 -5 23 -8t22 -3q19 0 30.5 6.5t27.5 21.5l20 -20q-17 -26 -39.5 -38.5t-42.5 -12.5q-23 0 -50 11
l-37 15q-11 5 -22 8t-22 3q-19 0 -30.5 -7t-27.5 -22l-20 20q17 26 39.5 39t42.5 13q21 0 48 -11z" />
    <glyph glyph-name="adieresis" unicode="&#xe4;" horiz-adv-x="515" 
d="M340 295q-73 -9 -119.5 -21.5t-73.5 -31t-37 -43.5t-10 -57q0 -45 30.5 -75.5t88.5 -30.5q47 0 85.5 19.5t86.5 58.5v187zM391 66q-45 -42 -87.5 -59.5t-92.5 -17.5q-39 0 -70 12.5t-52 33.5t-32.5 49t-11.5 59q0 47 16.5 80t50.5 55.5t85.5 35.5t121.5 21l72 8v35
q0 40 -13.5 66t-33.5 41.5t-44 22t-46 6.5q-51 0 -89 -18.5t-76 -55.5l-31 37q43 42 89.5 63t106.5 21q37 0 71 -10.5t59.5 -32.5t40.5 -55t15 -78v-385h-49v66zM208 642h-73v73h73v-73zM366 642h-73v73h73v-73z" />
    <glyph glyph-name="aring" unicode="&#xe5;" horiz-adv-x="515" 
d="M340 295q-73 -9 -119.5 -21.5t-73.5 -31t-37 -43.5t-10 -57q0 -45 30.5 -75.5t88.5 -30.5q47 0 85.5 19.5t86.5 58.5v187zM320 706q0 23 -16 41t-41 18q-24 0 -41 -17.5t-17 -41.5t17 -41t41 -17q25 0 41 17.5t16 40.5zM391 66q-45 -42 -87.5 -59.5t-92.5 -17.5
q-39 0 -70 12.5t-52 33.5t-32.5 49t-11.5 59q0 47 16.5 80t50.5 55.5t85.5 35.5t121.5 21l72 8v35q0 40 -13.5 66t-33.5 41.5t-44 22t-46 6.5q-51 0 -89 -18.5t-76 -55.5l-31 37q43 42 89.5 63t106.5 21q37 0 71 -10.5t59.5 -32.5t40.5 -55t15 -78v-385h-49v66zM348 706
q0 -34 -24 -60t-61 -26q-18 0 -33.5 7t-27 18.5t-18.5 27t-7 33.5t7 33.5t18.5 27.5t27 19t33.5 7q37 0 61 -26.5t24 -60.5z" />
    <glyph glyph-name="ae" unicode="&#xe6;" horiz-adv-x="893" 
d="M337 294q-71 -9 -117 -22t-72.5 -31t-37 -42t-10.5 -57q0 -46 31 -76t88 -30q25 0 50.5 9t50 24.5t48 35.5t44.5 42q-10 28 -15.5 60t-5.5 70v24zM786 320q-4 43 -17.5 79t-35.5 61.5t-51.5 39.5t-65.5 14q-34 0 -63.5 -14.5t-51.5 -40t-36.5 -61.5t-18.5 -78h340z
M614 561q65 0 108.5 -26.5t70 -68t37.5 -91.5t11 -98h-398q0 -57 14.5 -102t39.5 -76t57 -47t67 -16q44 0 89 19t89 77l37 -33q-47 -62 -100.5 -86t-114.5 -24q-57 0 -109 30t-84 91q-51 -53 -102 -87t-115 -34q-37 0 -67.5 12t-52.5 32.5t-34 48.5t-12 61q0 47 16.5 80
t50.5 55.5t85.5 35.5t121.5 21l72 8v35q0 34 -11 60t-29.5 42.5t-43.5 25t-53 8.5q-42 0 -81.5 -15.5t-83.5 -58.5l-31 37q48 46 94 65t102 19q67 0 114.5 -30.5t61.5 -83.5q32 58 81 86t103 28z" />
    <glyph glyph-name="ccedilla" unicode="&#xe7;" horiz-adv-x="536" 
d="M500 116q-15 -23 -34.5 -45.5t-45.5 -40.5t-58.5 -29.5t-73.5 -11.5h-3v-17q45 0 65 -21.5t20 -53.5q0 -21 -8.5 -36.5t-22.5 -25.5t-31 -14.5t-35 -4.5q-8 0 -22 1t-26 3v37q9 -2 18 -2.5t14 -0.5q32 0 51 10t19 34q0 22 -16.5 33.5t-42.5 11.5h-16v49q-44 7 -80.5 29
t-63 58t-41.5 85.5t-15 110.5q0 65 17.5 117.5t48.5 90t74.5 58t95.5 20.5q72 0 121.5 -32.5t81.5 -86.5l-41 -27q-26 42 -64 70.5t-99 28.5q-37 0 -70.5 -16t-58.5 -46.5t-39.5 -76t-14.5 -104.5q0 -51 13.5 -94.5t38.5 -74.5t58.5 -48.5t74.5 -17.5q31 0 57 10t47 25.5
t38 35.5t31 40z" />
    <glyph glyph-name="egrave" unicode="&#xe8;" horiz-adv-x="554" 
d="M447 320q-4 43 -17.5 79t-35.5 61.5t-51.5 39.5t-65.5 14q-34 0 -63.5 -14.5t-51.5 -40t-36.5 -61.5t-18.5 -78h340zM497 99q-47 -62 -100.5 -86t-114.5 -24q-44 0 -85.5 17.5t-73.5 53.5t-51.5 90t-19.5 127q0 69 18.5 122t49 89t71 54.5t84.5 18.5q65 0 108.5 -26.5
t70 -68t37.5 -91.5t11 -98h-398q0 -57 14.5 -102t39.5 -76t57 -47t67 -16q44 0 89 19t89 77zM359 642l-17 -27l-174 100l30 41z" />
    <glyph glyph-name="eacute" unicode="&#xe9;" horiz-adv-x="554" 
d="M447 320q-4 43 -17.5 79t-35.5 61.5t-51.5 39.5t-65.5 14q-34 0 -63.5 -14.5t-51.5 -40t-36.5 -61.5t-18.5 -78h340zM497 99q-47 -62 -100.5 -86t-114.5 -24q-44 0 -85.5 17.5t-73.5 53.5t-51.5 90t-19.5 127q0 69 18.5 122t49 89t71 54.5t84.5 18.5q65 0 108.5 -26.5
t70 -68t37.5 -91.5t11 -98h-398q0 -57 14.5 -102t39.5 -76t57 -47t67 -16q44 0 89 19t89 77zM408 715l-174 -100l-17 27l161 114z" />
    <glyph glyph-name="ecircumflex" unicode="&#xea;" horiz-adv-x="554" 
d="M447 320q-4 43 -17.5 79t-35.5 61.5t-51.5 39.5t-65.5 14q-34 0 -63.5 -14.5t-51.5 -40t-36.5 -61.5t-18.5 -78h340zM497 99q-47 -62 -100.5 -86t-114.5 -24q-44 0 -85.5 17.5t-73.5 53.5t-51.5 90t-19.5 127q0 69 18.5 122t49 89t71 54.5t84.5 18.5q65 0 108.5 -26.5
t70 -68t37.5 -91.5t11 -98h-398q0 -57 14.5 -102t39.5 -76t57 -47t67 -16q44 0 89 19t89 77zM427 639l-20 -24l-130 98l-130 -98l-20 24l124 117h52z" />
    <glyph glyph-name="edieresis" unicode="&#xeb;" horiz-adv-x="554" 
d="M447 320q-4 43 -17.5 79t-35.5 61.5t-51.5 39.5t-65.5 14q-34 0 -63.5 -14.5t-51.5 -40t-36.5 -61.5t-18.5 -78h340zM497 99q-47 -62 -100.5 -86t-114.5 -24q-44 0 -85.5 17.5t-73.5 53.5t-51.5 90t-19.5 127q0 69 18.5 122t49 89t71 54.5t84.5 18.5q65 0 108.5 -26.5
t70 -68t37.5 -91.5t11 -98h-398q0 -57 14.5 -102t39.5 -76t57 -47t67 -16q44 0 89 19t89 77zM234 642h-73v73h73v-73zM392 642h-73v73h73v-73z" />
    <glyph glyph-name="igrave" unicode="&#xec;" horiz-adv-x="217" 
d="M133 0h-49v550h49v-550zM175 642l-17 -27l-174 100l30 41z" />
    <glyph glyph-name="iacute" unicode="&#xed;" horiz-adv-x="217" 
d="M133 0h-49v550h49v-550zM233 715l-174 -100l-17 27l161 114z" />
    <glyph glyph-name="icircumflex" unicode="&#xee;" horiz-adv-x="217" 
d="M133 0h-49v550h49v-550zM258 639l-20 -24l-130 98l-130 -98l-20 24l124 117h52z" />
    <glyph glyph-name="idieresis" unicode="&#xef;" horiz-adv-x="217" 
d="M133 0h-49v550h49v-550zM66 642h-73v73h73v-73zM224 642h-73v73h73v-73z" />
    <glyph glyph-name="eth" unicode="&#xf0;" horiz-adv-x="584" 
d="M480 253q0 43 -13 82.5t-37.5 69.5t-59.5 48t-78 18q-44 0 -78.5 -18t-59 -48t-37.5 -69.5t-13 -82.5q0 -44 13 -83t37.5 -69t59 -47.5t78.5 -17.5q43 0 78 17.5t59.5 47t37.5 69t13 83.5zM332 658q110 -93 155 -192.5t45 -212.5q0 -58 -17.5 -106.5t-49 -83.5
t-75.5 -54.5t-98 -19.5t-98 19t-75.5 54t-49 83.5t-17.5 107.5q0 58 17.5 106.5t49 83.5t75.5 55t98 20q74 0 135 -46q-13 23 -30.5 46t-36.5 43.5t-38 38.5t-36 31l-121 -72l-21 35l107 65q-26 18 -48.5 32t-49.5 28l20 37q35 -16 65 -33.5t59 -38.5l115 69l20 -35z" />
    <glyph glyph-name="ntilde" unicode="&#xf1;" horiz-adv-x="550" 
d="M475 0h-49v390q0 58 -28.5 91.5t-91.5 33.5q-44 0 -88.5 -20t-88.5 -54v-441h-49v550h49v-62q37 29 82 51.5t98 22.5q78 0 122 -43.5t44 -120.5v-398zM304 697q12 -5 23 -8t22 -3q19 0 30.5 6.5t27.5 21.5l20 -20q-17 -26 -39.5 -38.5t-42.5 -12.5q-23 0 -50 11l-37 15
q-11 5 -22 8t-22 3q-19 0 -30.5 -7t-27.5 -22l-20 20q17 26 39.5 39t42.5 13q21 0 48 -11z" />
    <glyph glyph-name="ograve" unicode="&#xf2;" 
d="M472 275q0 51 -12.5 95t-36.5 76t-58 50t-77 18t-77 -18t-58 -50t-36.5 -76t-12.5 -95t12.5 -95t36.5 -76t58 -50t77 -18t77 18t58 50t36.5 76t12.5 95zM524 275q0 -66 -17 -118.5t-48.5 -90t-75 -57.5t-95.5 -20q-53 0 -96 20t-74.5 57.5t-48.5 90t-17 118.5
q0 65 17 118t48.5 90.5t74.5 57.5t96 20q52 0 95.5 -20t75 -57.5t48.5 -90.5t17 -118zM370 642l-17 -27l-174 100l30 41z" />
    <glyph glyph-name="oacute" unicode="&#xf3;" 
d="M472 275q0 51 -12.5 95t-36.5 76t-58 50t-77 18t-77 -18t-58 -50t-36.5 -76t-12.5 -95t12.5 -95t36.5 -76t58 -50t77 -18t77 18t58 50t36.5 76t12.5 95zM524 275q0 -66 -17 -118.5t-48.5 -90t-75 -57.5t-95.5 -20q-53 0 -96 20t-74.5 57.5t-48.5 90t-17 118.5
q0 65 17 118t48.5 90.5t74.5 57.5t96 20q52 0 95.5 -20t75 -57.5t48.5 -90.5t17 -118zM404 715l-174 -100l-17 27l161 114z" />
    <glyph glyph-name="ocircumflex" unicode="&#xf4;" 
d="M472 275q0 51 -12.5 95t-36.5 76t-58 50t-77 18t-77 -18t-58 -50t-36.5 -76t-12.5 -95t12.5 -95t36.5 -76t58 -50t77 -18t77 18t58 50t36.5 76t12.5 95zM524 275q0 -66 -17 -118.5t-48.5 -90t-75 -57.5t-95.5 -20q-53 0 -96 20t-74.5 57.5t-48.5 90t-17 118.5
q0 65 17 118t48.5 90.5t74.5 57.5t96 20q52 0 95.5 -20t75 -57.5t48.5 -90.5t17 -118zM438 639l-20 -24l-130 98l-130 -98l-20 24l124 117h52z" />
    <glyph glyph-name="otilde" unicode="&#xf5;" 
d="M472 275q0 51 -12.5 95t-36.5 76t-58 50t-77 18t-77 -18t-58 -50t-36.5 -76t-12.5 -95t12.5 -95t36.5 -76t58 -50t77 -18t77 18t58 50t36.5 76t12.5 95zM524 275q0 -66 -17 -118.5t-48.5 -90t-75 -57.5t-95.5 -20q-53 0 -96 20t-74.5 57.5t-48.5 90t-17 118.5
q0 65 17 118t48.5 90.5t74.5 57.5t96 20q52 0 95.5 -20t75 -57.5t48.5 -90.5t17 -118zM310 697q12 -5 23 -8t22 -3q19 0 30.5 6.5t27.5 21.5l20 -20q-17 -26 -39.5 -38.5t-42.5 -12.5q-23 0 -50 11l-37 15q-11 5 -22 8t-22 3q-19 0 -30.5 -7t-27.5 -22l-20 20q17 26 39.5 39
t42.5 13q21 0 48 -11z" />
    <glyph glyph-name="odieresis" unicode="&#xf6;" 
d="M472 275q0 51 -12.5 95t-36.5 76t-58 50t-77 18t-77 -18t-58 -50t-36.5 -76t-12.5 -95t12.5 -95t36.5 -76t58 -50t77 -18t77 18t58 50t36.5 76t12.5 95zM524 275q0 -66 -17 -118.5t-48.5 -90t-75 -57.5t-95.5 -20q-53 0 -96 20t-74.5 57.5t-48.5 90t-17 118.5
q0 65 17 118t48.5 90.5t74.5 57.5t96 20q52 0 95.5 -20t75 -57.5t48.5 -90.5t17 -118zM245 642h-73v73h73v-73zM403 642h-73v73h73v-73z" />
    <glyph glyph-name="divide" unicode="&#xf7;" horiz-adv-x="600" 
d="M336 153h-73v73h73v-73zM523 347h-446v48h446v-48zM336 517h-73v73h73v-73z" />
    <glyph glyph-name="oslash" unicode="&#xf8;" 
d="M391 479q-21 17 -47 26t-56 9q-43 0 -77 -18t-58 -50t-36.5 -76t-12.5 -95q0 -53 12.5 -97t37.5 -76zM184 72q44 -36 104 -36q43 0 77 18t58 50t36.5 76t12.5 95q0 53 -13.5 97.5t-38.5 76.5zM449 494q36 -38 55.5 -93t19.5 -126q0 -66 -17 -118.5t-48.5 -90t-75 -57.5
t-95.5 -20q-76 0 -131 40l-31 -49l-35 21l35 56q-35 38 -54.5 93t-19.5 125q0 65 17 118t48.5 90.5t74.5 57.5t96 20q75 0 130 -40l30 49l35 -21z" />
    <glyph glyph-name="ugrave" unicode="&#xf9;" horiz-adv-x="550" 
d="M421 62q-17 -14 -37 -27t-43 -23.5t-48.5 -17t-51.5 -6.5q-78 0 -122 43.5t-44 120.5v398h49v-390q0 -58 28.5 -91.5t91.5 -33.5q44 0 88.5 20t88.5 54v441h49v-550h-49v62zM337 642l-17 -27l-174 100l30 41z" />
    <glyph glyph-name="uacute" unicode="&#xfa;" horiz-adv-x="550" 
d="M421 62q-17 -14 -37 -27t-43 -23.5t-48.5 -17t-51.5 -6.5q-78 0 -122 43.5t-44 120.5v398h49v-390q0 -58 28.5 -91.5t91.5 -33.5q44 0 88.5 20t88.5 54v441h49v-550h-49v62zM405 715l-174 -100l-17 27l161 114z" />
    <glyph glyph-name="ucircumflex" unicode="&#xfb;" horiz-adv-x="550" 
d="M421 62q-17 -14 -37 -27t-43 -23.5t-48.5 -17t-51.5 -6.5q-78 0 -122 43.5t-44 120.5v398h49v-390q0 -58 28.5 -91.5t91.5 -33.5q44 0 88.5 20t88.5 54v441h49v-550h-49v62zM426 639l-20 -24l-130 98l-130 -98l-20 24l124 117h52z" />
    <glyph glyph-name="udieresis" unicode="&#xfc;" horiz-adv-x="550" 
d="M421 62q-17 -14 -37 -27t-43 -23.5t-48.5 -17t-51.5 -6.5q-78 0 -122 43.5t-44 120.5v398h49v-390q0 -58 28.5 -91.5t91.5 -33.5q44 0 88.5 20t88.5 54v441h49v-550h-49v62zM233 642h-73v73h73v-73zM391 642h-73v73h73v-73z" />
    <glyph glyph-name="yacute" unicode="&#xfd;" horiz-adv-x="511" 
d="M481 550l-228 -637q-12 -33 -24.5 -56t-30 -37.5t-42 -21t-58.5 -6.5q-14 0 -30 4l-28 7v46l30 -6t34 -4q22 0 38 5t28 15.5t21.5 28t18.5 43.5l33 91l-213 528h53l185 -460l163 460h50zM408 715l-174 -100l-17 27l161 114z" />
    <glyph glyph-name="thorn" unicode="&#xfe;" 
d="M129 110q38 -35 77 -54.5t87 -19.5q39 0 72 17t56.5 48.5t37 76t13.5 99.5q0 53 -13 96.5t-37 75t-57 48.5t-72 17q-48 0 -85.5 -18.5t-78.5 -56.5v-329zM129 488q38 42 78.5 57.5t86.5 15.5q49 0 91 -20.5t73 -58t48.5 -90.5t17.5 -117q0 -66 -18 -119t-49 -90t-73 -57
t-90 -20q-54 0 -94.5 19.5t-70.5 53.5v-264h-49v958h49v-268z" />
    <glyph glyph-name="ydieresis" unicode="&#xff;" horiz-adv-x="511" 
d="M481 550l-226 -631q-12 -33 -24.5 -56t-30 -37.5t-42 -21t-58.5 -6.5q-14 0 -30 4l-28 7v46l30 -6t34 -4q22 0 38 5t28 15.5t21.5 28t18.5 43.5l31 85l-213 528h53l185 -460l163 460h50zM221 642h-73v73h73v-73zM379 642h-73v73h73v-73z" />
    <glyph glyph-name="Amacron" unicode="&#x100;" horiz-adv-x="598" 
d="M438 273l-143 406l-140 -406h283zM590 0h-55l-80 225h-317l-78 -225h-52l259 742h58zM420 794h-249v43h249v-43z" />
    <glyph glyph-name="amacron" unicode="&#x101;" horiz-adv-x="515" 
d="M372 657h-249v43h249v-43zM340 295q-73 -9 -119.5 -21.5t-73.5 -31t-37 -43.5t-10 -57q0 -45 30.5 -75.5t88.5 -30.5q47 0 85.5 19.5t86.5 58.5v187zM391 66q-45 -42 -87.5 -59.5t-92.5 -17.5q-39 0 -70 12.5t-52 33.5t-32.5 49t-11.5 59q0 47 16.5 80t50.5 55.5
t85.5 35.5t121.5 21l72 8v35q0 40 -13.5 66t-33.5 41.5t-44 22t-46 6.5q-51 0 -89 -18.5t-76 -55.5l-31 37q43 42 89.5 63t106.5 21q37 0 71 -10.5t59.5 -32.5t40.5 -55t15 -78v-385h-49v66z" />
    <glyph glyph-name="Abreve" unicode="&#x102;" horiz-adv-x="598" 
d="M423 894q-11 -46 -43.5 -72.5t-84.5 -26.5t-84.5 26.5t-43.5 72.5l31 8q13 -29 37.5 -46.5t59.5 -17.5t59.5 17.5t37.5 46.5zM438 273l-143 406l-140 -406h283zM590 0h-55l-80 225h-317l-78 -225h-52l259 742h58z" />
    <glyph glyph-name="abreve" unicode="&#x103;" horiz-adv-x="515" 
d="M377 728q-11 -46 -43.5 -72.5t-84.5 -26.5t-84.5 26.5t-43.5 72.5l31 8q13 -29 37.5 -46.5t59.5 -17.5t59.5 17.5t37.5 46.5zM340 295q-73 -9 -119.5 -21.5t-73.5 -31t-37 -43.5t-10 -57q0 -45 30.5 -75.5t88.5 -30.5q47 0 85.5 19.5t86.5 58.5v187zM391 66
q-45 -42 -87.5 -59.5t-92.5 -17.5q-39 0 -70 12.5t-52 33.5t-32.5 49t-11.5 59q0 47 16.5 80t50.5 55.5t85.5 35.5t121.5 21l72 8v35q0 40 -13.5 66t-33.5 41.5t-44 22t-46 6.5q-51 0 -89 -18.5t-76 -55.5l-31 37q43 42 89.5 63t106.5 21q37 0 71 -10.5t59.5 -32.5t40.5 -55
t15 -78v-385h-49v66z" />
    <glyph glyph-name="Aogonek" unicode="&#x104;" horiz-adv-x="598" 
d="M651 -163q-17 -7 -32 -10t-35 -3q-36 0 -59 21t-23 58q0 31 16 55.5t39 41.5h-22l-80 225h-317l-78 -225h-52l259 742h58l265 -742q-18 -17 -30.5 -38t-12.5 -42q0 -53 60 -53q8 0 19.5 1.5t24.5 5.5v-37zM438 273l-143 406l-140 -406h283z" />
    <glyph glyph-name="aogonek" unicode="&#x105;" horiz-adv-x="515" 
d="M391 66q-45 -42 -87.5 -59.5t-92.5 -17.5q-39 0 -70 12.5t-52 33.5t-32.5 49t-11.5 59q0 47 16.5 80t50.5 55.5t85.5 35.5t121.5 21l72 8v35q0 40 -13.5 66t-33.5 41.5t-44 22t-46 6.5q-51 0 -89 -18.5t-76 -55.5l-31 37q43 42 89.5 63t106.5 21q37 0 71 -10.5
t59.5 -32.5t40.5 -55t15 -78v-385q-19 -17 -32.5 -37.5t-13.5 -42.5q0 -53 60 -53q8 0 19.5 1.5t24.5 5.5v-37q-17 -7 -32 -10t-35 -3q-36 0 -59 21t-23 58q0 32 17.5 56t41.5 41h-17v66zM340 295q-73 -9 -119.5 -21.5t-73.5 -31t-37 -43.5t-10 -57q0 -45 30.5 -75.5
t88.5 -30.5q47 0 85.5 19.5t86.5 58.5v187z" />
    <glyph glyph-name="Cacute" unicode="&#x106;" horiz-adv-x="629" 
d="M588 122q-82 -136 -231 -136q-69 0 -124.5 28.5t-93.5 78.5t-58.5 119.5t-20.5 151.5q0 88 21 160.5t59.5 124t93.5 79.5t123 28q75 0 126 -31.5t92 -90.5l-43 -31q-35 49 -78 76t-98 27q-52 0 -96 -22.5t-76.5 -65.5t-50.5 -105.5t-18 -143.5q0 -80 18.5 -141.5
t51 -104.5t76.5 -65t95 -22q34 0 61.5 8.5t50.5 24t42 37t36 48.5zM486 894l-174 -100l-17 27l161 114z" />
    <glyph glyph-name="cacute" unicode="&#x107;" horiz-adv-x="536" 
d="M419 715l-174 -100l-17 27l161 114zM500 116q-15 -23 -34.5 -45.5t-45.5 -40.5t-58.5 -29.5t-73.5 -11.5q-50 0 -93.5 19.5t-75 56.5t-49.5 90t-18 120q0 65 17.5 117.5t48.5 90t74.5 58t95.5 20.5q72 0 121.5 -32.5t81.5 -86.5l-41 -27q-26 42 -64 70.5t-99 28.5
q-37 0 -70.5 -16t-58.5 -46.5t-39.5 -76t-14.5 -104.5q0 -51 13.5 -94.5t38.5 -74.5t58.5 -48.5t74.5 -17.5q31 0 57 10t47 25.5t38 35.5t31 40z" />
    <glyph glyph-name="Ccircumflex" unicode="&#x108;" horiz-adv-x="629" 
d="M505 818l-20 -24l-130 98l-130 -98l-20 24l124 117h52zM588 122q-82 -136 -231 -136q-69 0 -124.5 28.5t-93.5 78.5t-58.5 119.5t-20.5 151.5q0 88 21 160.5t59.5 124t93.5 79.5t123 28q75 0 126 -31.5t92 -90.5l-43 -31q-35 49 -78 76t-98 27q-52 0 -96 -22.5
t-76.5 -65.5t-50.5 -105.5t-18 -143.5q0 -80 18.5 -141.5t51 -104.5t76.5 -65t95 -22q34 0 61.5 8.5t50.5 24t42 37t36 48.5z" />
    <glyph glyph-name="ccircumflex" unicode="&#x109;" horiz-adv-x="536" 
d="M437 639l-20 -24l-130 98l-130 -98l-20 24l124 117h52zM500 116q-15 -23 -34.5 -45.5t-45.5 -40.5t-58.5 -29.5t-73.5 -11.5q-50 0 -93.5 19.5t-75 56.5t-49.5 90t-18 120q0 65 17.5 117.5t48.5 90t74.5 58t95.5 20.5q72 0 121.5 -32.5t81.5 -86.5l-41 -27
q-26 42 -64 70.5t-99 28.5q-37 0 -70.5 -16t-58.5 -46.5t-39.5 -76t-14.5 -104.5q0 -51 13.5 -94.5t38.5 -74.5t58.5 -48.5t74.5 -17.5q31 0 57 10t47 25.5t38 35.5t31 40z" />
    <glyph glyph-name="Cdotaccent" unicode="&#x10a;" horiz-adv-x="629" 
d="M390 794h-73v73h73v-73zM588 122q-82 -136 -231 -136q-69 0 -124.5 28.5t-93.5 78.5t-58.5 119.5t-20.5 151.5q0 88 21 160.5t59.5 124t93.5 79.5t123 28q75 0 126 -31.5t92 -90.5l-43 -31q-35 49 -78 76t-98 27q-52 0 -96 -22.5t-76.5 -65.5t-50.5 -105.5t-18 -143.5
q0 -80 18.5 -141.5t51 -104.5t76.5 -65t95 -22q34 0 61.5 8.5t50.5 24t42 37t36 48.5z" />
    <glyph glyph-name="cdotaccent" unicode="&#x10b;" horiz-adv-x="536" 
d="M329 642h-73v73h73v-73zM500 116q-15 -23 -34.5 -45.5t-45.5 -40.5t-58.5 -29.5t-73.5 -11.5q-50 0 -93.5 19.5t-75 56.5t-49.5 90t-18 120q0 65 17.5 117.5t48.5 90t74.5 58t95.5 20.5q72 0 121.5 -32.5t81.5 -86.5l-41 -27q-26 42 -64 70.5t-99 28.5q-37 0 -70.5 -16
t-58.5 -46.5t-39.5 -76t-14.5 -104.5q0 -51 13.5 -94.5t38.5 -74.5t58.5 -48.5t74.5 -17.5q31 0 57 10t47 25.5t38 35.5t31 40z" />
    <glyph glyph-name="Ccaron" unicode="&#x10c;" horiz-adv-x="629" 
d="M505 911l-124 -117h-52l-124 117l20 24l130 -98l130 98zM588 122q-82 -136 -231 -136q-69 0 -124.5 28.5t-93.5 78.5t-58.5 119.5t-20.5 151.5q0 88 21 160.5t59.5 124t93.5 79.5t123 28q75 0 126 -31.5t92 -90.5l-43 -31q-35 49 -78 76t-98 27q-52 0 -96 -22.5
t-76.5 -65.5t-50.5 -105.5t-18 -143.5q0 -80 18.5 -141.5t51 -104.5t76.5 -65t95 -22q34 0 61.5 8.5t50.5 24t42 37t36 48.5z" />
    <glyph glyph-name="ccaron" unicode="&#x10d;" horiz-adv-x="536" 
d="M438 732l-124 -117h-52l-124 117l20 24l130 -98l130 98zM500 116q-15 -23 -34.5 -45.5t-45.5 -40.5t-58.5 -29.5t-73.5 -11.5q-50 0 -93.5 19.5t-75 56.5t-49.5 90t-18 120q0 65 17.5 117.5t48.5 90t74.5 58t95.5 20.5q72 0 121.5 -32.5t81.5 -86.5l-41 -27
q-26 42 -64 70.5t-99 28.5q-37 0 -70.5 -16t-58.5 -46.5t-39.5 -76t-14.5 -104.5q0 -51 13.5 -94.5t38.5 -74.5t58.5 -48.5t74.5 -17.5q31 0 57 10t47 25.5t38 35.5t31 40z" />
    <glyph glyph-name="Dcaron" unicode="&#x10e;" horiz-adv-x="672" 
d="M445 911l-124 -117h-52l-124 117l20 24l130 -98l130 98zM303 48q56 0 103 19.5t80.5 59.5t52 100t18.5 141q0 157 -69.5 241.5t-195.5 84.5h-150v-646h161zM289 742q78 0 138.5 -26t101.5 -74.5t62 -117.5t21 -155q0 -78 -18 -145.5t-55.5 -117t-95.5 -78t-138 -28.5
h-215v742h199z" />
    <glyph glyph-name="dcaron" unicode="&#x10f;" horiz-adv-x="616" 
d="M646 686l-50 -99h-27l41 99h-29v70h65v-70zM447 440q-38 35 -77 54.5t-87 19.5q-39 0 -72 -17t-56.5 -48.5t-37 -76t-13.5 -99.5q0 -53 13 -96.5t37 -75t57 -48.5t72 -17q48 0 87 21.5t77 62.5v320zM447 71q-29 -42 -71.5 -62t-93.5 -20q-49 0 -91 20.5t-73 58t-48.5 90
t-17.5 117.5q0 66 18 119t49 90t73 57t90 20q54 0 94.5 -19.5t70.5 -53.5v268h49v-756h-49v71z" />
    <glyph glyph-name="Dcroat" unicode="&#x110;" horiz-adv-x="672" 
d="M303 48q56 0 103 19.5t80.5 59.5t52 100t18.5 141q0 157 -69.5 241.5t-195.5 84.5h-150v-298h199v-43h-199v-305h161zM289 742q78 0 138.5 -26t101.5 -74.5t62 -117.5t21 -155q0 -78 -18 -145.5t-55.5 -117t-95.5 -78t-138 -28.5h-215v353h-82v43h82v346h199z" />
    <glyph glyph-name="dcroat" unicode="&#x111;" 
d="M447 71q-29 -42 -71.5 -62t-93.5 -20q-49 0 -91 20.5t-73 58t-48.5 90t-17.5 117.5q0 66 18 119t49 90t73 57t90 20q54 0 94.5 -19.5t70.5 -53.5v150h-172v43h172v75h49v-75h80v-43h-80v-638h-49v71zM447 440q-38 35 -77 54.5t-87 19.5q-39 0 -72 -17t-56.5 -48.5
t-37 -76t-13.5 -99.5q0 -53 13 -96.5t37 -75t57 -48.5t72 -17q48 0 87 21.5t77 62.5v320z" />
    <glyph glyph-name="Emacron" unicode="&#x112;" horiz-adv-x="560" 
d="M428 794h-249v43h249v-43zM500 0h-410v742h397v-48h-345v-278h300v-48h-300v-320h358v-48z" />
    <glyph glyph-name="emacron" unicode="&#x113;" horiz-adv-x="554" 
d="M400 657h-249v43h249v-43zM447 320q-4 43 -17.5 79t-35.5 61.5t-51.5 39.5t-65.5 14q-34 0 -63.5 -14.5t-51.5 -40t-36.5 -61.5t-18.5 -78h340zM497 99q-47 -62 -100.5 -86t-114.5 -24q-44 0 -85.5 17.5t-73.5 53.5t-51.5 90t-19.5 127q0 69 18.5 122t49 89t71 54.5
t84.5 18.5q65 0 108.5 -26.5t70 -68t37.5 -91.5t11 -98h-398q0 -57 14.5 -102t39.5 -76t57 -47t67 -16q44 0 89 19t89 77z" />
    <glyph glyph-name="Ebreve" unicode="&#x114;" horiz-adv-x="560" 
d="M430 894q-11 -46 -43.5 -72.5t-84.5 -26.5t-84.5 26.5t-43.5 72.5l31 8q13 -29 37.5 -46.5t59.5 -17.5t59.5 17.5t37.5 46.5zM500 0h-410v742h397v-48h-345v-278h300v-48h-300v-320h358v-48z" />
    <glyph glyph-name="ebreve" unicode="&#x115;" horiz-adv-x="554" 
d="M397 728q-11 -46 -43.5 -72.5t-84.5 -26.5t-84.5 26.5t-43.5 72.5l31 8q13 -29 37.5 -46.5t59.5 -17.5t59.5 17.5t37.5 46.5zM447 320q-4 43 -17.5 79t-35.5 61.5t-51.5 39.5t-65.5 14q-34 0 -63.5 -14.5t-51.5 -40t-36.5 -61.5t-18.5 -78h340zM497 99
q-47 -62 -100.5 -86t-114.5 -24q-44 0 -85.5 17.5t-73.5 53.5t-51.5 90t-19.5 127q0 69 18.5 122t49 89t71 54.5t84.5 18.5q65 0 108.5 -26.5t70 -68t37.5 -91.5t11 -98h-398q0 -57 14.5 -102t39.5 -76t57 -47t67 -16q44 0 89 19t89 77z" />
    <glyph glyph-name="Edotaccent" unicode="&#x116;" horiz-adv-x="560" 
d="M338 794h-73v73h73v-73zM500 0h-410v742h397v-48h-345v-278h300v-48h-300v-320h358v-48z" />
    <glyph glyph-name="edotaccent" unicode="&#x117;" horiz-adv-x="554" 
d="M310 642h-73v73h73v-73zM447 320q-4 43 -17.5 79t-35.5 61.5t-51.5 39.5t-65.5 14q-34 0 -63.5 -14.5t-51.5 -40t-36.5 -61.5t-18.5 -78h340zM497 99q-47 -62 -100.5 -86t-114.5 -24q-44 0 -85.5 17.5t-73.5 53.5t-51.5 90t-19.5 127q0 69 18.5 122t49 89t71 54.5
t84.5 18.5q65 0 108.5 -26.5t70 -68t37.5 -91.5t11 -98h-398q0 -57 14.5 -102t39.5 -76t57 -47t67 -16q44 0 89 19t89 77z" />
    <glyph glyph-name="Eogonek" unicode="&#x118;" horiz-adv-x="560" 
d="M554 -163q-17 -7 -32 -10t-35 -3q-36 0 -59 21t-23 58q0 31 16 55.5t39 41.5h-370v742h397v-48h-345v-278h300v-48h-300v-320h358v-48h-7q-18 -17 -30.5 -38t-12.5 -42q0 -53 60 -53q8 0 19.5 1.5t24.5 5.5v-37z" />
    <glyph glyph-name="eogonek" unicode="&#x119;" horiz-adv-x="554" 
d="M461 -163q-17 -7 -32 -10t-35 -3q-36 0 -59 21t-23 58q0 32 17.5 57t40.5 42q-40 -13 -88 -13q-44 0 -85.5 17.5t-73.5 53.5t-51.5 90t-19.5 127q0 69 18.5 122t49 89t71 54.5t84.5 18.5q65 0 108.5 -26.5t70 -68t37.5 -91.5t11 -98h-398q0 -57 14.5 -102t39.5 -76
t57 -47t67 -16q44 0 89 19t89 77l37 -33q-17 -25 -40 -44.5t-45 -40.5q-29 -28 -42 -50t-13 -44q0 -53 60 -53q8 0 19.5 1.5t24.5 5.5v-37zM447 320q-4 43 -17.5 79t-35.5 61.5t-51.5 39.5t-65.5 14q-34 0 -63.5 -14.5t-51.5 -40t-36.5 -61.5t-18.5 -78h340z" />
    <glyph glyph-name="Ecaron" unicode="&#x11a;" horiz-adv-x="560" 
d="M455 911l-124 -117h-52l-124 117l20 24l130 -98l130 98zM500 0h-410v742h397v-48h-345v-278h300v-48h-300v-320h358v-48z" />
    <glyph glyph-name="ecaron" unicode="&#x11b;" horiz-adv-x="554" 
d="M431 732l-124 -117h-52l-124 117l20 24l130 -98l130 98zM447 320q-4 43 -17.5 79t-35.5 61.5t-51.5 39.5t-65.5 14q-34 0 -63.5 -14.5t-51.5 -40t-36.5 -61.5t-18.5 -78h340zM497 99q-47 -62 -100.5 -86t-114.5 -24q-44 0 -85.5 17.5t-73.5 53.5t-51.5 90t-19.5 127
q0 69 18.5 122t49 89t71 54.5t84.5 18.5q65 0 108.5 -26.5t70 -68t37.5 -91.5t11 -98h-398q0 -57 14.5 -102t39.5 -76t57 -47t67 -16q44 0 89 19t89 77z" />
    <glyph glyph-name="Gcircumflex" unicode="&#x11c;" horiz-adv-x="692" 
d="M511 818l-20 -24l-130 98l-130 -98l-20 24l124 117h52zM562 87q-37 -54 -89 -77.5t-106 -23.5q-73 0 -130 28.5t-96.5 78.5t-60 119.5t-20.5 151.5q0 88 21.5 160.5t61 124t95.5 79.5t126 28q75 0 129.5 -29.5t94.5 -86.5l-44 -29q-70 95 -181 95q-53 0 -98.5 -22.5
t-78.5 -65.5t-52 -105.5t-19 -143.5q0 -80 19 -141.5t52.5 -104.5t80 -65t101.5 -22q28 0 62 10t62.5 32t48 56t19.5 81v117h-205v48h257v-380h-40z" />
    <glyph glyph-name="gcircumflex" unicode="&#x11d;" 
d="M431 639l-20 -24l-130 98l-130 -98l-20 24l124 117h52zM447 440q-38 35 -77 54.5t-87 19.5q-39 0 -72 -16t-56.5 -46.5t-37 -74.5t-13.5 -99q0 -53 13 -95.5t37 -72.5t57 -46.5t72 -16.5q48 0 85.5 18.5t78.5 56.5v318zM496 -3q0 -94 -53 -146.5t-156 -52.5
q-41 0 -74.5 8t-61 21t-48.5 29.5t-37 32.5l32 36q36 -35 82.5 -57.5t107.5 -22.5q81 0 120 42t39 117v69q-38 -42 -78.5 -57.5t-86.5 -15.5q-49 0 -91 19.5t-73 56t-48.5 88t-17.5 116.5q0 66 18 118t49 88.5t73 55.5t90 19q54 0 94.5 -19.5t70.5 -53.5v62h49v-553z" />
    <glyph glyph-name="Gbreve" unicode="&#x11e;" horiz-adv-x="692" 
d="M489 894q-11 -46 -43.5 -72.5t-84.5 -26.5t-84.5 26.5t-43.5 72.5l31 8q13 -29 37.5 -46.5t59.5 -17.5t59.5 17.5t37.5 46.5zM562 87q-37 -54 -89 -77.5t-106 -23.5q-73 0 -130 28.5t-96.5 78.5t-60 119.5t-20.5 151.5q0 88 21.5 160.5t61 124t95.5 79.5t126 28
q75 0 129.5 -29.5t94.5 -86.5l-44 -29q-70 95 -181 95q-53 0 -98.5 -22.5t-78.5 -65.5t-52 -105.5t-19 -143.5q0 -80 19 -141.5t52.5 -104.5t80 -65t101.5 -22q28 0 62 10t62.5 32t48 56t19.5 81v117h-205v48h257v-380h-40z" />
    <glyph glyph-name="gbreve" unicode="&#x11f;" 
d="M410 728q-11 -46 -43.5 -72.5t-84.5 -26.5t-84.5 26.5t-43.5 72.5l31 8q13 -29 37.5 -46.5t59.5 -17.5t59.5 17.5t37.5 46.5zM447 440q-38 35 -77 54.5t-87 19.5q-39 0 -72 -16t-56.5 -46.5t-37 -74.5t-13.5 -99q0 -53 13 -95.5t37 -72.5t57 -46.5t72 -16.5
q48 0 85.5 18.5t78.5 56.5v318zM496 -3q0 -94 -53 -146.5t-156 -52.5q-41 0 -74.5 8t-61 21t-48.5 29.5t-37 32.5l32 36q36 -35 82.5 -57.5t107.5 -22.5q81 0 120 42t39 117v69q-38 -42 -78.5 -57.5t-86.5 -15.5q-49 0 -91 19.5t-73 56t-48.5 88t-17.5 116.5q0 66 18 118
t49 88.5t73 55.5t90 19q54 0 94.5 -19.5t70.5 -53.5v62h49v-553z" />
    <glyph glyph-name="Gcommaaccent" unicode="&#x122;" horiz-adv-x="692" 
d="M407 -83q0 -24 -8 -43t-20 -32t-27 -19.5t-30 -6.5h-21t-21 1v31q7 -1 13 -1h14q30 0 45 14.5t17 42.5h-27v70h65v-57zM562 87q-37 -54 -89 -77.5t-106 -23.5q-73 0 -130 28.5t-96.5 78.5t-60 119.5t-20.5 151.5q0 88 21.5 160.5t61 124t95.5 79.5t126 28
q75 0 129.5 -29.5t94.5 -86.5l-44 -29q-70 95 -181 95q-53 0 -98.5 -22.5t-78.5 -65.5t-52 -105.5t-19 -143.5q0 -80 19 -141.5t52.5 -104.5t80 -65t101.5 -22q28 0 62 10t62.5 32t48 56t19.5 81v117h-205v48h257v-380h-40z" />
    <glyph glyph-name="gcommaaccent" unicode="&#x123;" 
d="M239 687l50 99h27l-41 -99h29v-70h-65v70zM447 440q-38 35 -77 54.5t-87 19.5q-39 0 -72 -16t-56.5 -46.5t-37 -74.5t-13.5 -99q0 -53 13 -95.5t37 -72.5t57 -46.5t72 -16.5q48 0 85.5 18.5t78.5 56.5v318zM496 -3q0 -94 -53 -146.5t-156 -52.5q-41 0 -74.5 8t-61 21
t-48.5 29.5t-37 32.5l32 36q36 -35 82.5 -57.5t107.5 -22.5q81 0 120 42t39 117v69q-38 -42 -78.5 -57.5t-86.5 -15.5q-49 0 -91 19.5t-73 56t-48.5 88t-17.5 116.5q0 66 18 118t49 88.5t73 55.5t90 19q54 0 94.5 -19.5t70.5 -53.5v62h49v-553z" />
    <glyph glyph-name="Hcircumflex" unicode="&#x124;" horiz-adv-x="663" 
d="M485 818l-20 -24l-130 98l-130 -98l-20 24l124 117h52zM573 0h-52v368h-379v-368h-52v742h52v-326h379v326h52v-742z" />
    <glyph glyph-name="hcircumflex" unicode="&#x125;" horiz-adv-x="550" 
d="M414 818l-20 -24l-130 98l-130 -98l-20 24l124 117h52zM475 0h-49v390q0 58 -28.5 91.5t-91.5 33.5q-44 0 -88.5 -20t-88.5 -54v-441h-49v756h49v-268q35 29 81 51.5t99 22.5q78 0 122 -43.5t44 -120.5v-398z" />
    <glyph glyph-name="Itilde" unicode="&#x128;" horiz-adv-x="244" 
d="M148 0h-52v742h52v-742zM144 849q12 -5 23 -8t22 -3q19 0 30.5 6.5t27.5 21.5l20 -20q-17 -26 -39.5 -38.5t-42.5 -12.5q-23 0 -50 11l-37 15q-11 5 -22 8t-22 3q-19 0 -30.5 -7t-27.5 -22l-20 20q17 26 39.5 39t42.5 13q21 0 48 -11z" />
    <glyph glyph-name="itilde" unicode="&#x129;" horiz-adv-x="217" 
d="M131 697q12 -5 23 -8t22 -3q19 0 30.5 6.5t27.5 21.5l20 -20q-17 -26 -39.5 -38.5t-42.5 -12.5q-23 0 -50 11l-37 15q-11 5 -22 8t-22 3q-19 0 -30.5 -7t-27.5 -22l-20 20q17 26 39.5 39t42.5 13q21 0 48 -11zM133 0h-49v550h49v-550z" />
    <glyph glyph-name="Imacron" unicode="&#x12a;" horiz-adv-x="244" 
d="M148 0h-52v742h52v-742zM247 794h-249v43h249v-43z" />
    <glyph glyph-name="imacron" unicode="&#x12b;" horiz-adv-x="217" 
d="M233 657h-249v43h249v-43zM133 0h-49v550h49v-550z" />
    <glyph glyph-name="Ibreve" unicode="&#x12c;" horiz-adv-x="244" 
d="M148 0h-52v742h52v-742zM250 894q-11 -46 -43.5 -72.5t-84.5 -26.5t-84.5 26.5t-43.5 72.5l31 8q13 -29 37.5 -46.5t59.5 -17.5t59.5 17.5t37.5 46.5z" />
    <glyph glyph-name="ibreve" unicode="&#x12d;" horiz-adv-x="217" 
d="M236 728q-11 -46 -43.5 -72.5t-84.5 -26.5t-84.5 26.5t-43.5 72.5l31 8q13 -29 37.5 -46.5t59.5 -17.5t59.5 17.5t37.5 46.5zM133 0h-49v550h49v-550z" />
    <glyph glyph-name="Iogonek" unicode="&#x12e;" horiz-adv-x="244" 
d="M96 0v742h52v-742q-18 -17 -30.5 -38t-12.5 -42q0 -53 60 -53q8 0 19.5 1.5t24.5 5.5v-37q-17 -7 -32 -10t-35 -3q-36 0 -59 21t-23 58q0 31 16 55.5t39 41.5h-19z" />
    <glyph glyph-name="iogonek" unicode="&#x12f;" horiz-adv-x="217" 
d="M99 0q-23 -17 -39 -41.5t-16 -55.5q0 -37 23 -58t59 -21q20 0 35 3t32 10v37q-13 -4 -24.5 -5.5t-19.5 -1.5q-60 0 -60 53q0 21 13 42t31 38v550h-49v-550h15zM136 756h-55v-65h55v65z" />
    <glyph glyph-name="Idotaccent" unicode="&#x130;" horiz-adv-x="244" 
d="M148 0h-52v742h52v-742zM159 794h-73v73h73v-73z" />
    <glyph glyph-name="dotlessi" unicode="&#x131;" horiz-adv-x="217" 
d="M133 0h-49v550h49v-550z" />
    <glyph glyph-name="Jcircumflex" unicode="&#x134;" horiz-adv-x="486" 
d="M501 818l-20 -24l-130 98l-130 -98l-20 24l124 117h52zM402 166q0 -47 -16.5 -81.5t-42.5 -56.5t-60 -32.5t-68 -10.5q-69 0 -115.5 29.5t-74.5 80.5l43 27q26 -42 59.5 -64.5t88.5 -22.5q21 0 44.5 7t43.5 23t33 42t13 63v572h52v-576z" />
    <glyph glyph-name="jcircumflex" unicode="&#x135;" horiz-adv-x="217" 
d="M257 639l-20 -24l-130 98l-130 -98l-20 24l124 117h52zM133 -43q0 -70 -34 -114.5t-103 -44.5q-23 0 -48.5 8t-45.5 20l17 38q20 -9 38.5 -14t37.5 -5q44 0 66.5 29t22.5 92v584h49v-593z" />
    <glyph glyph-name="Kcommaaccent" unicode="&#x136;" horiz-adv-x="577" 
d="M347 -83q0 -24 -8 -43t-20 -32t-27 -19.5t-30 -6.5h-21t-21 1v31q7 -1 13 -1h14q30 0 45 14.5t17 42.5h-27v70h65v-57zM569 0h-63l-273 398l-91 -101v-297h-52v742h52v-374l332 374h63l-269 -306z" />
    <glyph glyph-name="kcommaaccent" unicode="&#x137;" horiz-adv-x="477" 
d="M303 -83q0 -24 -8 -43t-20 -32t-27 -19.5t-30 -6.5h-21t-21 1v31q7 -1 13 -1h14q30 0 45 14.5t17 42.5h-27v70h65v-57zM457 0h-57l-211 302l-60 -59v-243h-49v756h49v-449l246 243h65l-217 -215z" />
    <glyph glyph-name="Lacute" unicode="&#x139;" horiz-adv-x="525" 
d="M291 894l-174 -100l-17 27l161 114zM490 0h-400v742h52v-694h348v-48z" />
    <glyph glyph-name="lacute" unicode="&#x13a;" horiz-adv-x="217" 
d="M239 894l-174 -100l-17 27l161 114zM133 0h-49v756h49v-756z" />
    <glyph glyph-name="Lcommaaccent" unicode="&#x13b;" horiz-adv-x="525" 
d="M345 -83q0 -24 -8 -43t-20 -32t-27 -19.5t-30 -6.5h-21t-21 1v31q7 -1 13 -1h14q30 0 45 14.5t17 42.5h-27v70h65v-57zM490 0h-400v742h52v-694h348v-48z" />
    <glyph glyph-name="lcommaaccent" unicode="&#x13c;" horiz-adv-x="217" 
d="M155 -83q0 -24 -8 -43t-20 -32t-27 -19.5t-30 -6.5h-21t-21 1v31q7 -1 13 -1h14q30 0 45 14.5t17 42.5h-27v70h65v-57zM133 0h-49v756h49v-756z" />
    <glyph glyph-name="Lcaron" unicode="&#x13d;" horiz-adv-x="525" 
d="M346 686l-50 -99h-27l41 99h-29v70h65v-70zM490 0h-400v742h52v-694h348v-48z" />
    <glyph glyph-name="lcaron" unicode="&#x13e;" horiz-adv-x="254" 
d="M284 686l-50 -99h-27l41 99h-29v70h65v-70zM133 0h-49v756h49v-756z" />
    <glyph glyph-name="Lslash" unicode="&#x141;" horiz-adv-x="525" 
d="M490 0h-400v308l-77 -56l-27 36l104 76v378h52v-340l131 96l27 -36l-158 -116v-298h348v-48z" />
    <glyph glyph-name="lslash" unicode="&#x142;" horiz-adv-x="329" 
d="M321 488l-132 -99v-389h-49v352l-105 -79l-27 36l132 99v348h49v-311l105 79z" />
    <glyph glyph-name="Nacute" unicode="&#x143;" horiz-adv-x="663" 
d="M493 894l-174 -100l-17 27l161 114zM573 0h-57l-376 648v-648h-49v742h56l377 -648v648h49v-742z" />
    <glyph glyph-name="nacute" unicode="&#x144;" horiz-adv-x="550" 
d="M429 715l-174 -100l-17 27l161 114zM475 0h-49v390q0 58 -28.5 91.5t-91.5 33.5q-44 0 -88.5 -20t-88.5 -54v-441h-49v550h49v-62q37 29 82 51.5t98 22.5q78 0 122 -43.5t44 -120.5v-398z" />
    <glyph glyph-name="Ncommaaccent" unicode="&#x145;" horiz-adv-x="663" 
d="M371 -83q0 -24 -8 -43t-20 -32t-27 -19.5t-30 -6.5h-21t-21 1v31q7 -1 13 -1h14q30 0 45 14.5t17 42.5h-27v70h65v-57zM573 0h-57l-376 648v-648h-49v742h56l377 -648v648h49v-742z" />
    <glyph glyph-name="ncommaaccent" unicode="&#x146;" horiz-adv-x="550" 
d="M317 -83q0 -24 -8 -43t-20 -32t-27 -19.5t-30 -6.5h-21t-21 1v31q7 -1 13 -1h14q30 0 45 14.5t17 42.5h-27v70h65v-57zM475 0h-49v390q0 58 -28.5 91.5t-91.5 33.5q-44 0 -88.5 -20t-88.5 -54v-441h-49v550h49v-62q37 29 82 51.5t98 22.5q78 0 122 -43.5t44 -120.5v-398z
" />
    <glyph glyph-name="Ncaron" unicode="&#x147;" horiz-adv-x="663" 
d="M480 911l-124 -117h-52l-124 117l20 24l130 -98l130 98zM573 0h-57l-376 648v-648h-49v742h56l377 -648v648h49v-742z" />
    <glyph glyph-name="ncaron" unicode="&#x148;" horiz-adv-x="550" 
d="M450 732l-124 -117h-52l-124 117l20 24l130 -98l130 98zM475 0h-49v390q0 58 -28.5 91.5t-91.5 33.5q-44 0 -88.5 -20t-88.5 -54v-441h-49v550h49v-62q37 29 82 51.5t98 22.5q78 0 122 -43.5t44 -120.5v-398z" />
    <glyph glyph-name="Omacron" unicode="&#x14c;" horiz-adv-x="693" 
d="M469 794h-249v43h249v-43zM578 365q0 82 -17 145.5t-47.5 107t-73 66t-94.5 22.5q-51 0 -93.5 -22.5t-73 -65.5t-47.5 -105.5t-17 -143.5q0 -80 17 -142t48 -104.5t73 -65t93 -22.5t94 22.5t73.5 65.5t47.5 104t17 138zM633 368q0 -85 -20 -155.5t-57 -121t-90 -78.5
t-119 -28q-67 0 -120 28.5t-90 79t-57 120t-20 151.5q0 88 19.5 160.5t56.5 124t90 79.5t121 28q67 0 120 -28.5t90 -79.5t56.5 -122.5t19.5 -157.5z" />
    <glyph glyph-name="omacron" unicode="&#x14d;" 
d="M408 657h-249v43h249v-43zM472 275q0 51 -12.5 95t-36.5 76t-58 50t-77 18t-77 -18t-58 -50t-36.5 -76t-12.5 -95t12.5 -95t36.5 -76t58 -50t77 -18t77 18t58 50t36.5 76t12.5 95zM524 275q0 -66 -17 -118.5t-48.5 -90t-75 -57.5t-95.5 -20q-53 0 -96 20t-74.5 57.5
t-48.5 90t-17 118.5q0 65 17 118t48.5 90.5t74.5 57.5t96 20q52 0 95.5 -20t75 -57.5t48.5 -90.5t17 -118z" />
    <glyph glyph-name="Obreve" unicode="&#x14e;" horiz-adv-x="693" 
d="M474 894q-11 -46 -43.5 -72.5t-84.5 -26.5t-84.5 26.5t-43.5 72.5l31 8q13 -29 37.5 -46.5t59.5 -17.5t59.5 17.5t37.5 46.5zM578 365q0 82 -17 145.5t-47.5 107t-73 66t-94.5 22.5q-51 0 -93.5 -22.5t-73 -65.5t-47.5 -105.5t-17 -143.5q0 -80 17 -142t48 -104.5t73 -65
t93 -22.5t94 22.5t73.5 65.5t47.5 104t17 138zM633 368q0 -85 -20 -155.5t-57 -121t-90 -78.5t-119 -28q-67 0 -120 28.5t-90 79t-57 120t-20 151.5q0 88 19.5 160.5t56.5 124t90 79.5t121 28q67 0 120 -28.5t90 -79.5t56.5 -122.5t19.5 -157.5z" />
    <glyph glyph-name="obreve" unicode="&#x14f;" 
d="M414 728q-11 -46 -43.5 -72.5t-84.5 -26.5t-84.5 26.5t-43.5 72.5l31 8q13 -29 37.5 -46.5t59.5 -17.5t59.5 17.5t37.5 46.5zM472 275q0 51 -12.5 95t-36.5 76t-58 50t-77 18t-77 -18t-58 -50t-36.5 -76t-12.5 -95t12.5 -95t36.5 -76t58 -50t77 -18t77 18t58 50t36.5 76
t12.5 95zM524 275q0 -66 -17 -118.5t-48.5 -90t-75 -57.5t-95.5 -20q-53 0 -96 20t-74.5 57.5t-48.5 90t-17 118.5q0 65 17 118t48.5 90.5t74.5 57.5t96 20q52 0 95.5 -20t75 -57.5t48.5 -90.5t17 -118z" />
    <glyph glyph-name="Ohungarumlaut" unicode="&#x150;" horiz-adv-x="693" 
d="M406 909l-165 -115l-19 25l150 128zM557 909l-165 -115l-19 25l150 128zM578 365q0 82 -17 145.5t-47.5 107t-73 66t-94.5 22.5q-51 0 -93.5 -22.5t-73 -65.5t-47.5 -105.5t-17 -143.5q0 -80 17 -142t48 -104.5t73 -65t93 -22.5t94 22.5t73.5 65.5t47.5 104t17 138z
M633 368q0 -85 -20 -155.5t-57 -121t-90 -78.5t-119 -28q-67 0 -120 28.5t-90 79t-57 120t-20 151.5q0 88 19.5 160.5t56.5 124t90 79.5t121 28q67 0 120 -28.5t90 -79.5t56.5 -122.5t19.5 -157.5z" />
    <glyph glyph-name="ohungarumlaut" unicode="&#x151;" 
d="M350 730l-165 -115l-19 25l150 128zM501 730l-165 -115l-19 25l150 128zM472 275q0 51 -12.5 95t-36.5 76t-58 50t-77 18t-77 -18t-58 -50t-36.5 -76t-12.5 -95t12.5 -95t36.5 -76t58 -50t77 -18t77 18t58 50t36.5 76t12.5 95zM524 275q0 -66 -17 -118.5t-48.5 -90
t-75 -57.5t-95.5 -20q-53 0 -96 20t-74.5 57.5t-48.5 90t-17 118.5q0 65 17 118t48.5 90.5t74.5 57.5t96 20q52 0 95.5 -20t75 -57.5t48.5 -90.5t17 -118z" />
    <glyph glyph-name="OE" unicode="&#x152;" horiz-adv-x="1048" 
d="M578 365q0 82 -17 145.5t-47.5 107t-73 66t-94.5 22.5q-51 0 -93.5 -22.5t-73 -65.5t-47.5 -105.5t-17 -143.5q0 -80 17 -142t48 -104.5t73 -65t93 -22.5t94 22.5t73.5 65.5t47.5 104t17 138zM578 742h397v-48h-345v-278h300v-48h-300v-320h358v-48h-410v133
q-36 -73 -96 -110.5t-135 -37.5q-67 0 -120 28.5t-90 79t-57 120t-20 151.5q0 88 19.5 160.5t56.5 124t90 79.5t121 28q76 0 136 -38t95 -110v134z" />
    <glyph glyph-name="oe" unicode="&#x153;" horiz-adv-x="971" 
d="M472 275q0 51 -12.5 95t-36.5 76t-58 50t-77 18t-77 -18t-58 -50t-36.5 -76t-12.5 -95t12.5 -95t36.5 -76t58 -50t77 -18t77 18t58 50t36.5 76t12.5 95zM864 320q-4 43 -17.5 79t-35.5 61.5t-51.5 39.5t-65.5 14q-34 0 -63.5 -14.5t-51.5 -40t-36.5 -61.5t-18.5 -78h340z
M692 561q65 0 108.5 -26.5t70 -68t37.5 -91.5t11 -98h-398q0 -57 14.5 -102t39.5 -76t57 -47t67 -16q44 0 89 19t89 77l37 -33q-47 -62 -100.5 -86t-114.5 -24q-62 0 -118 37t-85 111q-26 -69 -80.5 -108.5t-127.5 -39.5q-53 0 -96 20t-74.5 57.5t-48.5 90t-17 118.5
q0 65 17 118t48.5 90.5t74.5 57.5t96 20q71 0 125 -38.5t83 -107.5q29 73 82 109.5t114 36.5z" />
    <glyph glyph-name="Racute" unicode="&#x154;" horiz-adv-x="624" 
d="M446 894l-174 -100l-17 27l161 114zM336 400q41 0 70 13.5t48 35t27.5 49t8.5 55.5q0 61 -45 101t-139 40h-164v-294h194zM566 0h-59l-157 352h-208v-352h-52v742h223q61 0 105 -15t72 -40.5t41.5 -59.5t13.5 -72q0 -72 -38.5 -124t-105.5 -70z" />
    <glyph glyph-name="racute" unicode="&#x155;" horiz-adv-x="358" 
d="M129 463q12 16 27.5 33.5t35 31.5t42 23.5t48.5 9.5q20 0 36.5 -3.5t29.5 -12.5l-23 -47q-10 7 -21 11.5t-28 4.5q-19 0 -38.5 -9t-38.5 -24.5t-37 -35t-33 -40.5v-405h-49v550h49v-87zM339 715l-174 -100l-17 27l161 114z" />
    <glyph glyph-name="Rcommaaccent" unicode="&#x156;" horiz-adv-x="624" 
d="M345 -83q0 -24 -8 -43t-20 -32t-27 -19.5t-30 -6.5h-21t-21 1v31q7 -1 13 -1h14q30 0 45 14.5t17 42.5h-27v70h65v-57zM336 400q41 0 70 13.5t48 35t27.5 49t8.5 55.5q0 61 -45 101t-139 40h-164v-294h194zM566 0h-59l-157 352h-208v-352h-52v742h223q61 0 105 -15
t72 -40.5t41.5 -59.5t13.5 -72q0 -72 -38.5 -124t-105.5 -70z" />
    <glyph glyph-name="rcommaaccent" unicode="&#x157;" horiz-adv-x="358" 
d="M129 463q12 16 27.5 33.5t35 31.5t42 23.5t48.5 9.5q20 0 36.5 -3.5t29.5 -12.5l-23 -47q-10 7 -21 11.5t-28 4.5q-19 0 -38.5 -9t-38.5 -24.5t-37 -35t-33 -40.5v-405h-49v550h49v-87zM145 -83q0 -24 -8 -43t-20 -32t-27 -19.5t-30 -6.5h-21t-21 1v31q7 -1 13 -1h14
q30 0 45 14.5t17 42.5h-27v70h65v-57z" />
    <glyph glyph-name="Rcaron" unicode="&#x158;" horiz-adv-x="624" 
d="M435 911l-124 -117h-52l-124 117l20 24l130 -98l130 98zM336 400q41 0 70 13.5t48 35t27.5 49t8.5 55.5q0 61 -45 101t-139 40h-164v-294h194zM566 0h-59l-157 352h-208v-352h-52v742h223q61 0 105 -15t72 -40.5t41.5 -59.5t13.5 -72q0 -72 -38.5 -124t-105.5 -70z" />
    <glyph glyph-name="rcaron" unicode="&#x159;" horiz-adv-x="358" 
d="M129 463q12 16 27.5 33.5t35 31.5t42 23.5t48.5 9.5q20 0 36.5 -3.5t29.5 -12.5l-23 -47q-10 7 -21 11.5t-28 4.5q-19 0 -38.5 -9t-38.5 -24.5t-37 -35t-33 -40.5v-405h-49v550h49v-87zM351 732l-124 -117h-52l-124 117l20 24l130 -98l130 98z" />
    <glyph glyph-name="Sacute" unicode="&#x15a;" horiz-adv-x="530" 
d="M392 894l-174 -100l-17 27l161 114zM306 405q33 -15 63.5 -33t54.5 -42.5t38.5 -57t14.5 -76.5q0 -52 -18 -91t-48.5 -65.5t-70.5 -40t-83 -13.5q-70 0 -128 30t-95 77l39 36q35 -44 85 -68.5t100 -24.5q27 0 56 9.5t53 28.5t39.5 48t15.5 67q0 35 -11 60.5t-30.5 45
t-46.5 34.5t-58 29l-70 32q-30 13 -57.5 28.5t-48.5 36.5t-34 48.5t-13 65.5q0 45 16 79.5t43.5 58.5t65 36.5t81.5 12.5q69 0 119.5 -27.5t85.5 -77.5l-41 -32q-28 38 -71 62.5t-94 24.5q-29 0 -56 -8t-48 -24.5t-33.5 -41.5t-12.5 -59q0 -26 8.5 -46t25 -35.5t40.5 -29
t54 -26.5z" />
    <glyph glyph-name="sacute" unicode="&#x15b;" horiz-adv-x="454" 
d="M359 715l-174 -100l-17 27l161 114zM264 305q27 -11 52.5 -22.5t45 -29t31.5 -41.5t12 -58q0 -39 -15 -69.5t-40.5 -52t-59.5 -32.5t-71 -11q-56 0 -103 21.5t-85 67.5l37 30q33 -36 72 -54t79 -18q23 0 47.5 7.5t44.5 22t33 35t13 47.5q0 24 -10 41.5t-27.5 30
t-39.5 22.5t-46 19l-61 23q-54 20 -88 49.5t-34 82.5q0 35 13.5 62t37.5 45.5t56.5 28t70.5 9.5q50 0 88.5 -16.5t80.5 -64.5l-37 -30q-32 38 -67 51t-67 13q-23 0 -46 -5.5t-41 -17t-29.5 -28.5t-11.5 -40q0 -17 8 -31t22.5 -25.5t33.5 -21t41 -17.5z" />
    <glyph glyph-name="Scircumflex" unicode="&#x15c;" horiz-adv-x="530" 
d="M405 818l-20 -24l-130 98l-130 -98l-20 24l124 117h52zM306 405q33 -15 63.5 -33t54.5 -42.5t38.5 -57t14.5 -76.5q0 -52 -18 -91t-48.5 -65.5t-70.5 -40t-83 -13.5q-70 0 -128 30t-95 77l39 36q35 -44 85 -68.5t100 -24.5q27 0 56 9.5t53 28.5t39.5 48t15.5 67
q0 35 -11 60.5t-30.5 45t-46.5 34.5t-58 29l-70 32q-30 13 -57.5 28.5t-48.5 36.5t-34 48.5t-13 65.5q0 45 16 79.5t43.5 58.5t65 36.5t81.5 12.5q69 0 119.5 -27.5t85.5 -77.5l-41 -32q-28 38 -71 62.5t-94 24.5q-29 0 -56 -8t-48 -24.5t-33.5 -41.5t-12.5 -59
q0 -26 8.5 -46t25 -35.5t40.5 -29t54 -26.5z" />
    <glyph glyph-name="scircumflex" unicode="&#x15d;" horiz-adv-x="454" 
d="M375 639l-20 -24l-130 98l-130 -98l-20 24l124 117h52zM264 305q27 -11 52.5 -22.5t45 -29t31.5 -41.5t12 -58q0 -39 -15 -69.5t-40.5 -52t-59.5 -32.5t-71 -11q-56 0 -103 21.5t-85 67.5l37 30q33 -36 72 -54t79 -18q23 0 47.5 7.5t44.5 22t33 35t13 47.5q0 24 -10 41.5
t-27.5 30t-39.5 22.5t-46 19l-61 23q-54 20 -88 49.5t-34 82.5q0 35 13.5 62t37.5 45.5t56.5 28t70.5 9.5q50 0 88.5 -16.5t80.5 -64.5l-37 -30q-32 38 -67 51t-67 13q-23 0 -46 -5.5t-41 -17t-29.5 -28.5t-11.5 -40q0 -17 8 -31t22.5 -25.5t33.5 -21t41 -17.5z" />
    <glyph glyph-name="Scedilla" unicode="&#x15e;" horiz-adv-x="530" 
d="M272 -28q45 0 65 -21.5t20 -53.5q0 -21 -8.5 -36.5t-22.5 -25.5t-31 -14.5t-35 -4.5q-8 0 -22 1t-26 3v37q9 -2 18 -2.5t14 -0.5q32 0 51 10t19 34q0 22 -16.5 33.5t-42.5 11.5h-16v44q-64 4 -117 33t-88 73l39 36q35 -44 85 -68.5t100 -24.5q27 0 56 9.5t53 28.5
t39.5 48t15.5 67q0 35 -11 60.5t-30.5 45t-46.5 34.5t-58 29l-70 32q-30 13 -57.5 28.5t-48.5 36.5t-34 48.5t-13 65.5q0 45 16 79.5t43.5 58.5t65 36.5t81.5 12.5q69 0 119.5 -27.5t85.5 -77.5l-41 -32q-28 38 -71 62.5t-94 24.5q-29 0 -56 -8t-48 -24.5t-33.5 -41.5
t-12.5 -59q0 -26 8.5 -46t25 -35.5t40.5 -29t54 -26.5l70 -31q33 -15 63.5 -33t54.5 -42.5t38.5 -57t14.5 -76.5q0 -50 -16.5 -88t-44.5 -64.5t-65.5 -41t-78.5 -16.5v-14z" />
    <glyph glyph-name="Scedilla" unicode="&#xf6c1;" horiz-adv-x="530" 
d="M272 -28q45 0 65 -21.5t20 -53.5q0 -21 -8.5 -36.5t-22.5 -25.5t-31 -14.5t-35 -4.5q-8 0 -22 1t-26 3v37q9 -2 18 -2.5t14 -0.5q32 0 51 10t19 34q0 22 -16.5 33.5t-42.5 11.5h-16v44q-64 4 -117 33t-88 73l39 36q35 -44 85 -68.5t100 -24.5q27 0 56 9.5t53 28.5
t39.5 48t15.5 67q0 35 -11 60.5t-30.5 45t-46.5 34.5t-58 29l-70 32q-30 13 -57.5 28.5t-48.5 36.5t-34 48.5t-13 65.5q0 45 16 79.5t43.5 58.5t65 36.5t81.5 12.5q69 0 119.5 -27.5t85.5 -77.5l-41 -32q-28 38 -71 62.5t-94 24.5q-29 0 -56 -8t-48 -24.5t-33.5 -41.5
t-12.5 -59q0 -26 8.5 -46t25 -35.5t40.5 -29t54 -26.5l70 -31q33 -15 63.5 -33t54.5 -42.5t38.5 -57t14.5 -76.5q0 -50 -16.5 -88t-44.5 -64.5t-65.5 -41t-78.5 -16.5v-14z" />
    <glyph glyph-name="scedilla" unicode="&#x15f;" horiz-adv-x="454" 
d="M234 -28q45 0 65 -21.5t20 -53.5q0 -21 -8.5 -36.5t-22.5 -25.5t-31 -14.5t-35 -4.5q-8 0 -22 1t-26 3v37q9 -2 18 -2.5t14 -0.5q32 0 51 10t19 34q0 22 -16.5 33.5t-42.5 11.5h-16v47q-50 3 -92.5 24.5t-77.5 63.5l37 30q33 -36 72 -54t79 -18q23 0 47.5 7.5t44.5 22
t33 35t13 47.5q0 24 -10 41.5t-27.5 30t-39.5 22.5t-46 19l-61 23q-54 20 -88 49.5t-34 82.5q0 35 13.5 62t37.5 45.5t56.5 28t70.5 9.5q50 0 88.5 -16.5t80.5 -64.5l-37 -30q-32 38 -67 51t-67 13q-23 0 -46 -5.5t-41 -17t-29.5 -28.5t-11.5 -40q0 -17 8 -31t22.5 -25.5
t33.5 -21t41 -17.5l60 -23q27 -11 52.5 -22.5t45 -29t31.5 -41.5t12 -58q0 -37 -13.5 -66.5t-37 -50.5t-54.5 -33.5t-66 -14.5v-17z" />
    <glyph glyph-name="scedilla" unicode="&#xf6c2;" horiz-adv-x="454" 
d="M234 -28q45 0 65 -21.5t20 -53.5q0 -21 -8.5 -36.5t-22.5 -25.5t-31 -14.5t-35 -4.5q-8 0 -22 1t-26 3v37q9 -2 18 -2.5t14 -0.5q32 0 51 10t19 34q0 22 -16.5 33.5t-42.5 11.5h-16v47q-50 3 -92.5 24.5t-77.5 63.5l37 30q33 -36 72 -54t79 -18q23 0 47.5 7.5t44.5 22
t33 35t13 47.5q0 24 -10 41.5t-27.5 30t-39.5 22.5t-46 19l-61 23q-54 20 -88 49.5t-34 82.5q0 35 13.5 62t37.5 45.5t56.5 28t70.5 9.5q50 0 88.5 -16.5t80.5 -64.5l-37 -30q-32 38 -67 51t-67 13q-23 0 -46 -5.5t-41 -17t-29.5 -28.5t-11.5 -40q0 -17 8 -31t22.5 -25.5
t33.5 -21t41 -17.5l60 -23q27 -11 52.5 -22.5t45 -29t31.5 -41.5t12 -58q0 -37 -13.5 -66.5t-37 -50.5t-54.5 -33.5t-66 -14.5v-17z" />
    <glyph glyph-name="Scaron" unicode="&#x160;" horiz-adv-x="530" 
d="M408 911l-124 -117h-52l-124 117l20 24l130 -98l130 98zM306 405q33 -15 63.5 -33t54.5 -42.5t38.5 -57t14.5 -76.5q0 -52 -18 -91t-48.5 -65.5t-70.5 -40t-83 -13.5q-70 0 -128 30t-95 77l39 36q35 -44 85 -68.5t100 -24.5q27 0 56 9.5t53 28.5t39.5 48t15.5 67
q0 35 -11 60.5t-30.5 45t-46.5 34.5t-58 29l-70 32q-30 13 -57.5 28.5t-48.5 36.5t-34 48.5t-13 65.5q0 45 16 79.5t43.5 58.5t65 36.5t81.5 12.5q69 0 119.5 -27.5t85.5 -77.5l-41 -32q-28 38 -71 62.5t-94 24.5q-29 0 -56 -8t-48 -24.5t-33.5 -41.5t-12.5 -59
q0 -26 8.5 -46t25 -35.5t40.5 -29t54 -26.5z" />
    <glyph glyph-name="scaron" unicode="&#x161;" horiz-adv-x="454" 
d="M264 305q27 -11 52.5 -22.5t45 -29t31.5 -41.5t12 -58q0 -39 -15 -69.5t-40.5 -52t-59.5 -32.5t-71 -11q-56 0 -103 21.5t-85 67.5l37 30q33 -36 72 -54t79 -18q23 0 47.5 7.5t44.5 22t33 35t13 47.5q0 24 -10 41.5t-27.5 30t-39.5 22.5t-46 19l-61 23q-54 20 -88 49.5
t-34 82.5q0 35 13.5 62t37.5 45.5t56.5 28t70.5 9.5q50 0 88.5 -16.5t80.5 -64.5l-37 -30q-32 38 -67 51t-67 13q-23 0 -46 -5.5t-41 -17t-29.5 -28.5t-11.5 -40q0 -17 8 -31t22.5 -25.5t33.5 -21t41 -17.5zM378 732l-124 -117h-52l-124 117l20 24l130 -98l130 98z" />
    <glyph glyph-name="Tcommaaccent" unicode="&#x162;" horiz-adv-x="528" 
d="M299 -83q0 -24 -8 -43t-20 -32t-27 -19.5t-30 -6.5h-21t-21 1v31q7 -1 13 -1h14q30 0 45 14.5t17 42.5h-27v70h65v-57zM508 694h-218v-694h-52v694h-218v48h488v-48z" />
    <glyph glyph-name="Tcommaaccent" unicode="&#x21a;" horiz-adv-x="528" 
d="M299 -83q0 -24 -8 -43t-20 -32t-27 -19.5t-30 -6.5h-21t-21 1v31q7 -1 13 -1h14q30 0 45 14.5t17 42.5h-27v70h65v-57zM508 694h-218v-694h-52v694h-218v48h488v-48z" />
    <glyph glyph-name="tcommaaccent" unicode="&#x163;" horiz-adv-x="309" 
d="M255 -83q0 -24 -8 -43t-20 -32t-27 -19.5t-30 -6.5h-21t-21 1v31q7 -1 13 -1h14q30 0 45 14.5t17 42.5h-27v70h65v-57zM277 -5q-13 -3 -28 -4.5t-29 -1.5q-69 0 -94.5 32.5t-25.5 102.5v382h-90v43h90v138l49 30v-168h128v-43h-128v-379q0 -53 15.5 -72t56.5 -19
q14 0 29.5 1.5t26.5 3.5v-46z" />
    <glyph glyph-name="tcommaaccent" unicode="&#x21b;" horiz-adv-x="309" 
d="M255 -83q0 -24 -8 -43t-20 -32t-27 -19.5t-30 -6.5h-21t-21 1v31q7 -1 13 -1h14q30 0 45 14.5t17 42.5h-27v70h65v-57zM277 -5q-13 -3 -28 -4.5t-29 -1.5q-69 0 -94.5 32.5t-25.5 102.5v382h-90v43h90v138l49 30v-168h128v-43h-128v-379q0 -53 15.5 -72t56.5 -19
q14 0 29.5 1.5t26.5 3.5v-46z" />
    <glyph glyph-name="Tcaron" unicode="&#x164;" horiz-adv-x="528" 
d="M416 911l-124 -117h-52l-124 117l20 24l130 -98l130 98zM508 694h-218v-694h-52v694h-218v48h488v-48z" />
    <glyph glyph-name="tcaron" unicode="&#x165;" horiz-adv-x="309" 
d="M282 686l-50 -83h-27l41 83h-29v70h65v-70zM277 -5q-13 -3 -28 -4.5t-29 -1.5q-69 0 -94.5 32.5t-25.5 102.5v382h-90v43h90v138l49 30v-168h128v-43h-128v-379q0 -53 15.5 -72t56.5 -19q14 0 29.5 1.5t26.5 3.5v-46z" />
    <glyph glyph-name="Utilde" unicode="&#x168;" horiz-adv-x="646" 
d="M352 849q12 -5 23 -8t22 -3q19 0 30.5 6.5t27.5 21.5l20 -20q-17 -26 -39.5 -38.5t-42.5 -12.5q-23 0 -50 11l-37 15q-11 5 -22 8t-22 3q-19 0 -30.5 -7t-27.5 -22l-20 20q17 26 39.5 39t42.5 13q21 0 48 -11zM562 220q0 -62 -21 -106.5t-54.5 -72.5t-76.5 -41t-86 -13
q-46 0 -89.5 13.5t-77 42.5t-53.5 75t-20 111v513h52v-512q0 -50 15.5 -86t41.5 -60t60 -35.5t70 -11.5q34 0 68 10.5t61 33t44 57.5t17 84v520h49v-522z" />
    <glyph glyph-name="utilde" unicode="&#x169;" horiz-adv-x="550" 
d="M284 697q12 -5 23 -8t22 -3q19 0 30.5 6.5t27.5 21.5l20 -20q-17 -26 -39.5 -38.5t-42.5 -12.5q-23 0 -50 11l-37 15q-11 5 -22 8t-22 3q-19 0 -30.5 -7t-27.5 -22l-20 20q17 26 39.5 39t42.5 13q21 0 48 -11zM421 62q-17 -14 -37 -27t-43 -23.5t-48.5 -17t-51.5 -6.5
q-78 0 -122 43.5t-44 120.5v398h49v-390q0 -58 28.5 -91.5t91.5 -33.5q44 0 88.5 20t88.5 54v441h49v-550h-49v62z" />
    <glyph glyph-name="Umacron" unicode="&#x16a;" horiz-adv-x="646" 
d="M453 794h-249v43h249v-43zM562 220q0 -62 -21 -106.5t-54.5 -72.5t-76.5 -41t-86 -13q-46 0 -89.5 13.5t-77 42.5t-53.5 75t-20 111v513h52v-512q0 -50 15.5 -86t41.5 -60t60 -35.5t70 -11.5q34 0 68 10.5t61 33t44 57.5t17 84v520h49v-522z" />
    <glyph glyph-name="umacron" unicode="&#x16b;" horiz-adv-x="550" 
d="M392 657h-249v43h249v-43zM421 62q-17 -14 -37 -27t-43 -23.5t-48.5 -17t-51.5 -6.5q-78 0 -122 43.5t-44 120.5v398h49v-390q0 -58 28.5 -91.5t91.5 -33.5q44 0 88.5 20t88.5 54v441h49v-550h-49v62z" />
    <glyph glyph-name="Uring" unicode="&#x16e;" horiz-adv-x="646" 
d="M387 880q0 23 -16 41t-41 18q-24 0 -41 -17.5t-17 -41.5t17 -41t41 -17q25 0 41 17.5t16 40.5zM415 880q0 -34 -24 -60t-61 -26q-18 0 -33.5 7t-27 18.5t-18.5 27t-7 33.5t7 33.5t18.5 27.5t27 19t33.5 7q37 0 61 -26.5t24 -60.5zM562 220q0 -62 -21 -106.5t-54.5 -72.5
t-76.5 -41t-86 -13q-46 0 -89.5 13.5t-77 42.5t-53.5 75t-20 111v513h52v-512q0 -50 15.5 -86t41.5 -60t60 -35.5t70 -11.5q34 0 68 10.5t61 33t44 57.5t17 84v520h49v-522z" />
    <glyph glyph-name="uring" unicode="&#x16f;" horiz-adv-x="550" 
d="M330 706q0 23 -16 41t-41 18q-24 0 -41 -17.5t-17 -41.5t17 -41t41 -17q25 0 41 17.5t16 40.5zM358 706q0 -34 -24 -60t-61 -26q-18 0 -33.5 7t-27 18.5t-18.5 27t-7 33.5t7 33.5t18.5 27.5t27 19t33.5 7q37 0 61 -26.5t24 -60.5zM421 62q-17 -14 -37 -27t-43 -23.5
t-48.5 -17t-51.5 -6.5q-78 0 -122 43.5t-44 120.5v398h49v-390q0 -58 28.5 -91.5t91.5 -33.5q44 0 88.5 20t88.5 54v441h49v-550h-49v62z" />
    <glyph glyph-name="Uhungarumlaut" unicode="&#x170;" horiz-adv-x="646" 
d="M406 909l-165 -115l-19 25l150 128zM557 909l-165 -115l-19 25l150 128zM562 220q0 -62 -21 -106.5t-54.5 -72.5t-76.5 -41t-86 -13q-46 0 -89.5 13.5t-77 42.5t-53.5 75t-20 111v513h52v-512q0 -50 15.5 -86t41.5 -60t60 -35.5t70 -11.5q34 0 68 10.5t61 33t44 57.5
t17 84v520h49v-522z" />
    <glyph glyph-name="uhungarumlaut" unicode="&#x171;" horiz-adv-x="550" 
d="M330 730l-165 -115l-19 25l150 128zM481 730l-165 -115l-19 25l150 128zM421 62q-17 -14 -37 -27t-43 -23.5t-48.5 -17t-51.5 -6.5q-78 0 -122 43.5t-44 120.5v398h49v-390q0 -58 28.5 -91.5t91.5 -33.5q44 0 88.5 20t88.5 54v441h49v-550h-49v62z" />
    <glyph glyph-name="Uogonek" unicode="&#x172;" horiz-adv-x="646" 
d="M508 -163q-17 -7 -32 -10t-35 -3q-36 0 -59 21t-23 58q0 32 17.5 57t40.5 42q-45 -15 -93 -15q-46 0 -89.5 13.5t-77 42.5t-53.5 75t-20 111v513h52v-512q0 -50 15.5 -86t41.5 -60t60 -35.5t70 -11.5q34 0 68 10.5t61 33t44 57.5t17 84v520h49v-522q0 -69 -23.5 -112.5
t-59.5 -72.5q-11 -8 -24 -21.5t-24 -29t-19 -32.5t-8 -32q0 -53 60 -53q8 0 19.5 1.5t24.5 5.5v-37z" />
    <glyph glyph-name="uogonek" unicode="&#x173;" horiz-adv-x="550" 
d="M421 62q-17 -14 -37 -27t-43 -23.5t-48.5 -17t-51.5 -6.5q-78 0 -122 43.5t-44 120.5v398h49v-390q0 -58 28.5 -91.5t91.5 -33.5q44 0 88.5 20t88.5 54v441h49v-550q-19 -17 -32.5 -37.5t-13.5 -42.5q0 -53 60 -53q8 0 19.5 1.5t24.5 5.5v-37q-17 -7 -32 -10t-35 -3
q-36 0 -59 21t-23 58q0 32 17.5 56t41.5 41h-17v62z" />
    <glyph glyph-name="Ydieresis" unicode="&#x178;" horiz-adv-x="608" 
d="M573 742l-240 -435v-307h-52v302l-246 440h59l212 -385l212 385h55zM265 794h-73v73h73v-73zM423 794h-73v73h73v-73z" />
    <glyph glyph-name="Zacute" unicode="&#x179;" horiz-adv-x="552" 
d="M416 894l-174 -100l-17 27l161 114zM505 0h-463v45l389 649h-369v48h432v-44l-390 -650h401v-48z" />
    <glyph glyph-name="zacute" unicode="&#x17a;" horiz-adv-x="428" 
d="M349 715l-174 -100l-17 27l161 114zM402 0h-376v40l307 466h-292v43h353v-38l-308 -468h316v-43z" />
    <glyph glyph-name="Zdotaccent" unicode="&#x17b;" horiz-adv-x="552" 
d="M296 794h-73v73h73v-73zM505 0h-463v45l389 649h-369v48h432v-44l-390 -650h401v-48z" />
    <glyph glyph-name="zdotaccent" unicode="&#x17c;" horiz-adv-x="428" 
d="M249 642h-73v73h73v-73zM402 0h-376v40l307 466h-292v43h353v-38l-308 -468h316v-43z" />
    <glyph glyph-name="florin" unicode="&#x192;" horiz-adv-x="571" 
d="M322 618q15 69 49 103.5t99 34.5q14 0 35 -4t34 -7l-18 -42q-12 3 -27 4.5t-26 1.5q-36 0 -59.5 -23t-34.5 -75l-38 -176h109v-48h-120l-90 -404q-16 -70 -49.5 -104t-98.5 -34q-20 0 -38 2t-39 8l14 42q16 -3 34 -4t31 -1q36 0 59.5 23.5t34.5 74.5l88 397h-102v48h113z
" />
    <glyph glyph-name="Scommaaccent" unicode="&#x218;" horiz-adv-x="530" 
d="M295 -83q0 -24 -8 -43t-20 -32t-27 -19.5t-30 -6.5h-21t-21 1v31q7 -1 13 -1h14q30 0 45 14.5t17 42.5h-27v70h65v-57zM306 405q33 -15 63.5 -33t54.5 -42.5t38.5 -57t14.5 -76.5q0 -52 -18 -91t-48.5 -65.5t-70.5 -40t-83 -13.5q-70 0 -128 30t-95 77l39 36
q35 -44 85 -68.5t100 -24.5q27 0 56 9.5t53 28.5t39.5 48t15.5 67q0 35 -11 60.5t-30.5 45t-46.5 34.5t-58 29l-70 32q-30 13 -57.5 28.5t-48.5 36.5t-34 48.5t-13 65.5q0 45 16 79.5t43.5 58.5t65 36.5t81.5 12.5q69 0 119.5 -27.5t85.5 -77.5l-41 -32q-28 38 -71 62.5
t-94 24.5q-29 0 -56 -8t-48 -24.5t-33.5 -41.5t-12.5 -59q0 -26 8.5 -46t25 -35.5t40.5 -29t54 -26.5z" />
    <glyph glyph-name="scommaaccent" unicode="&#x219;" horiz-adv-x="454" 
d="M255 -83q0 -24 -8 -43t-20 -32t-27 -19.5t-30 -6.5h-21t-21 1v31q7 -1 13 -1h14q30 0 45 14.5t17 42.5h-27v70h65v-57zM264 305q27 -11 52.5 -22.5t45 -29t31.5 -41.5t12 -58q0 -39 -15 -69.5t-40.5 -52t-59.5 -32.5t-71 -11q-56 0 -103 21.5t-85 67.5l37 30
q33 -36 72 -54t79 -18q23 0 47.5 7.5t44.5 22t33 35t13 47.5q0 24 -10 41.5t-27.5 30t-39.5 22.5t-46 19l-61 23q-54 20 -88 49.5t-34 82.5q0 35 13.5 62t37.5 45.5t56.5 28t70.5 9.5q50 0 88.5 -16.5t80.5 -64.5l-37 -30q-32 38 -67 51t-67 13q-23 0 -46 -5.5t-41 -17
t-29.5 -28.5t-11.5 -40q0 -17 8 -31t22.5 -25.5t33.5 -21t41 -17.5z" />
    <glyph glyph-name="circumflex" unicode="&#x2c6;" horiz-adv-x="333" 
d="M317 639l-20 -24l-130 98l-130 -98l-20 24l124 117h52z" />
    <glyph glyph-name="caron" unicode="&#x2c7;" horiz-adv-x="333" 
d="M317 732l-124 -117h-52l-124 117l20 24l130 -98l130 98z" />
    <glyph glyph-name="breve" unicode="&#x2d8;" horiz-adv-x="333" 
d="M295 728q-11 -46 -43.5 -72.5t-84.5 -26.5t-84.5 26.5t-43.5 72.5l31 8q13 -29 37.5 -46.5t59.5 -17.5t59.5 17.5t37.5 46.5z" />
    <glyph glyph-name="dotaccent" unicode="&#x2d9;" horiz-adv-x="333" 
d="M203 642h-73v73h73v-73z" />
    <glyph glyph-name="ring" unicode="&#x2da;" horiz-adv-x="333" 
d="M224 706q0 23 -16 41t-41 18q-24 0 -41 -17.5t-17 -41.5t17 -41t41 -17q25 0 41 17.5t16 40.5zM252 706q0 -34 -24 -60t-61 -26q-18 0 -33.5 7t-27 18.5t-18.5 27t-7 33.5t7 33.5t18.5 27.5t27 19t33.5 7q37 0 61 -26.5t24 -60.5z" />
    <glyph glyph-name="ogonek" unicode="&#x2db;" horiz-adv-x="333" 
d="M238 -163q-17 -7 -32 -10t-35 -3q-36 0 -59 21t-23 58q0 32 17.5 57.5t41.5 42.5h32q-19 -17 -32.5 -39t-13.5 -44q0 -53 60 -53q8 0 19.5 1.5t24.5 5.5v-37z" />
    <glyph glyph-name="tilde" unicode="&#x2dc;" horiz-adv-x="333" 
d="M189 697q12 -5 23 -8t22 -3q19 0 30.5 6.5t27.5 21.5l20 -20q-17 -26 -39.5 -38.5t-42.5 -12.5q-23 0 -50 11l-37 15q-11 5 -22 8t-22 3q-19 0 -30.5 -7t-27.5 -22l-20 20q17 26 39.5 39t42.5 13q21 0 48 -11z" />
    <glyph glyph-name="hungarumlaut" unicode="&#x2dd;" horiz-adv-x="333" 
d="M210 730l-165 -115l-19 25l150 128zM361 730l-165 -115l-19 25l150 128z" />
    <glyph glyph-name="endash" unicode="&#x2013;" horiz-adv-x="500" 
d="M506 254h-512v43h512v-43z" />
    <glyph glyph-name="emdash" unicode="&#x2014;" horiz-adv-x="820" 
d="M826 254h-832v43h832v-43z" />
    <glyph glyph-name="quoteleft" unicode="&#x2018;" horiz-adv-x="190" 
d="M141 756l-51 -107h33v-78h-73v77l61 108h30z" />
    <glyph glyph-name="quoteright" unicode="&#x2019;" horiz-adv-x="190" 
d="M140 680l-61 -108h-30l51 107h-33v78h73v-77z" />
    <glyph glyph-name="quotesinglbase" unicode="&#x201a;" horiz-adv-x="190" 
d="M132 0l-61 -108h-30l51 108h-33v78h73v-78z" />
    <glyph glyph-name="quotedblleft" unicode="&#x201c;" horiz-adv-x="326" 
d="M141 756l-51 -107h33v-78h-73v77l61 108h30zM277 756l-51 -107h33v-78h-73v77l61 108h30z" />
    <glyph glyph-name="quotedblright" unicode="&#x201d;" horiz-adv-x="326" 
d="M140 680l-61 -108h-30l51 107h-33v78h73v-77zM276 680l-61 -108h-30l51 107h-33v78h73v-77z" />
    <glyph glyph-name="quotedblbase" unicode="&#x201e;" horiz-adv-x="326" 
d="M132 0l-61 -108h-30l51 108h-33v78h73v-78zM268 0l-61 -108h-30l51 108h-33v78h73v-78z" />
    <glyph glyph-name="dagger" unicode="&#x2020;" horiz-adv-x="387" 
d="M330 517h-112v-578h-49v578h-112v43h112v182h49v-182h112v-43z" />
    <glyph glyph-name="daggerdbl" unicode="&#x2021;" horiz-adv-x="387" 
d="M330 127h-112v-188h-49v188h-112v43h112v347h-112v43h112v182h49v-182h112v-43h-112v-347h112v-43z" />
    <glyph glyph-name="bullet" unicode="&#x2022;" horiz-adv-x="500" 
d="M374 371q0 -26 -10 -48.5t-26.5 -39t-39.5 -26.5t-48 -10q-26 0 -48.5 10t-39 26.5t-26.5 39t-10 48.5q0 25 10 48t26.5 39.5t39 26.5t48.5 10q25 0 48 -10t39.5 -26.5t26.5 -39.5t10 -48z" />
    <glyph glyph-name="ellipsis" unicode="&#x2026;" horiz-adv-x="567" 
d="M129 0h-69v73h69v-73zM318 0h-69v73h69v-73zM507 0h-69v73h69v-73z" />
    <glyph glyph-name="perthousand" unicode="&#x2030;" horiz-adv-x="1157" 
d="M707 167q0 68 -29.5 104t-74.5 36t-74.5 -36t-29.5 -104t29.5 -103t74.5 -35t74.5 35t29.5 103zM303 575q0 68 -29.5 103t-74.5 35t-74.5 -35t-29.5 -103t29.5 -104t74.5 -36t74.5 36t29.5 104zM1062 167q0 68 -29.5 104t-74.5 36t-74.5 -36t-29.5 -104t29.5 -103
t74.5 -35t74.5 35t29.5 103zM649 737l-462 -756l-36 20l462 755zM755 167q0 -85 -41.5 -133t-110.5 -48t-110.5 48t-41.5 133q0 84 41.5 133.5t110.5 49.5t110.5 -49.5t41.5 -133.5zM351 575q0 -85 -41.5 -134t-110.5 -49t-110.5 49t-41.5 134q0 84 41.5 132.5t110.5 48.5
t110.5 -48.5t41.5 -132.5zM1110 167q0 -85 -41.5 -133t-110.5 -48t-110.5 48t-41.5 133q0 84 41.5 133.5t110.5 49.5t110.5 -49.5t41.5 -133.5z" />
    <glyph glyph-name="guilsinglleft" unicode="&#x2039;" horiz-adv-x="287" 
d="M253 72l-28 -28l-189 216v32l189 216l28 -28l-162 -204z" />
    <glyph glyph-name="guilsinglright" unicode="&#x203a;" horiz-adv-x="287" 
d="M251 260l-189 -216l-28 28l162 204l-162 204l28 28l189 -216v-32z" />
    <glyph glyph-name="fraction" unicode="&#x2044;" horiz-adv-x="61" 
d="M283 737l-469 -756l-36 19l469 756z" />
    <glyph glyph-name="fraction" unicode="&#x2215;" horiz-adv-x="61" 
d="M283 737l-469 -756l-36 19l469 756z" />
    <glyph glyph-name="Euro" unicode="&#x20ac;" horiz-adv-x="596" 
d="M556 123q-40 -72 -94.5 -105t-118.5 -33q-55 0 -100 22t-78.5 61t-55.5 93.5t-31 119.5h-53v43h48q-1 11 -1.5 21.5t-0.5 19.5q0 11 0.5 21.5t1.5 21.5h-48v43h53q9 69 31 125.5t56 96.5t79 61.5t99 21.5q68 0 117.5 -33.5t82.5 -88.5l-42 -27q-33 51 -70.5 75t-88.5 24
q-82 0 -138 -66.5t-72 -188.5h269v-43h-274q-1 -10 -1 -19v-19q0 -12 0.5 -23.5t1.5 -22.5h273v-43h-267q9 -58 28 -103.5t46 -77t61 -48.5t73 -17q54 0 96 28t76 89z" />
    <glyph glyph-name="trademark" unicode="&#x2122;" horiz-adv-x="711" 
d="M278 703h-114v-324h-45v324h-114v39h273v-39zM643 379h-45v262l-102 -214h-34l-98 212v-260h-45v363h44l117 -253l120 253h43v-363z" />
    <glyph glyph-name="minus" unicode="&#x2212;" horiz-adv-x="600" 
d="M520 347h-440v48h440v-48z" />
    <glyph glyph-name="notequal" unicode="&#x2260;" horiz-adv-x="600" 
d="M523 251h-261l-96 -173h-55l97 173h-131v48h156l80 144h-236v48h262l89 161h53l-89 -161h131v-48h-157l-80 -144h237v-48z" />
    <glyph glyph-name="lessequal" unicode="&#x2264;" horiz-adv-x="600" 
d="M520 16h-441v48h441v-48zM520 135l-441 203v57l441 201v-47l-398 -183l398 -184v-47z" />
    <glyph glyph-name="greaterequal" unicode="&#x2265;" horiz-adv-x="600" 
d="M520 16h-441v48h441v-48zM520 338l-441 -203v47l398 184l-398 183v47l441 -201v-57z" />
    <glyph glyph-name="fi" unicode="&#xfb01;" horiz-adv-x="497" 
d="M292 704q-27 6 -58 6q-38 0 -59 -16.5t-21 -66.5v-78h120v-43h-120v-506h-49v506h-90v43h90v75q0 72 34.5 102.5t100.5 30.5q12 0 26.5 -2.5t25.5 -5.5v-45zM413 0h-49v549h49v-549zM416 691h-55v65h55v-65z" />
    <glyph glyph-name="fl" unicode="&#xfb02;" horiz-adv-x="497" 
d="M292 704q-27 6 -58 6q-38 0 -59 -16.5t-21 -66.5v-78h120v-43h-120v-506h-49v506h-90v43h90v75q0 72 34.5 102.5t100.5 30.5q9 0 25 -2.5t27 -5.5v-45zM413 0h-49v756h49v-756z" />
    </font>
</defs>
</svg>
